<svg width="21" height="21" viewBox="0 0 21 21" fill="none" xmlns="http://www.w3.org/2000/svg">
<path fill-rule="evenodd" clip-rule="evenodd" d="M10.4976 1.93335C5.45959 1.93335 1.37427 6.01781 1.37427 11.0567C1.37427 15.0876 3.98841 18.5074 7.61337 19.7138C8.06928 19.7982 8.23673 19.5158 8.23673 19.2748C8.23673 19.0574 8.22835 18.3386 8.22439 17.5762C5.68626 18.1282 5.15069 16.4998 5.15069 16.4998C4.73563 15.4453 4.13774 15.1649 4.13774 15.1649C3.3099 14.5986 4.20014 14.6103 4.20014 14.6103C5.11618 14.6746 5.59865 15.5506 5.59865 15.5506C6.41234 16.9453 7.7329 16.542 8.2536 16.3089C8.3355 15.7193 8.57183 15.3167 8.83283 15.0889C6.80639 14.8583 4.67609 14.0759 4.67609 10.5801C4.67609 9.58414 5.03253 8.77024 5.61619 8.13131C5.52148 7.90143 5.20916 6.97357 5.70459 5.71682C5.70459 5.71682 6.47074 5.47176 8.21403 6.65213C8.94183 6.44996 9.72235 6.34858 10.4977 6.34506C11.2729 6.34858 12.054 6.44996 12.7831 6.65213C14.5245 5.47176 15.2896 5.71682 15.2896 5.71682C15.7861 6.97357 15.4738 7.90143 15.3791 8.13131C15.9641 8.77024 16.318 9.5841 16.318 10.5801C16.318 14.0843 14.1837 14.8558 12.1521 15.0817C12.4793 15.3648 12.7708 15.92 12.7708 16.7712C12.7708 17.9919 12.7604 18.9743 12.7604 19.2748C12.7604 19.5177 12.9246 19.8022 13.387 19.7126C17.0101 18.5049 19.6209 15.0863 19.6209 11.0567C19.6209 6.01781 15.5362 1.93335 10.4976 1.93335Z" fill="#386641"/>
<path d="M4.8298 15.0323C4.80972 15.0778 4.73833 15.0913 4.6734 15.0602C4.60717 15.0304 4.57013 14.9686 4.59151 14.9232C4.61114 14.8765 4.68252 14.8635 4.74864 14.8947C4.8149 14.9245 4.85269 14.9869 4.8298 15.0323Z" fill="#386641"/>
<path d="M5.19941 15.4446C5.15592 15.4849 5.07074 15.4662 5.01303 15.4024C4.95328 15.3388 4.94224 15.2537 4.9864 15.2129C5.03125 15.1725 5.11375 15.1914 5.17346 15.255C5.23324 15.3194 5.24486 15.4038 5.19941 15.4446Z" fill="#386641"/>
<path d="M5.55906 15.9701C5.50313 16.009 5.41166 15.9725 5.35514 15.8914C5.2992 15.8102 5.29922 15.7129 5.35645 15.6739C5.41297 15.635 5.50315 15.67 5.56038 15.7505C5.61616 15.833 5.61615 15.9304 5.55906 15.9701Z" fill="#386641"/>
<path d="M6.05181 16.4777C6.00176 16.5328 5.89522 16.5179 5.81736 16.4427C5.73753 16.3692 5.7154 16.2648 5.7654 16.2096C5.81619 16.1544 5.9233 16.1698 6.00175 16.2445C6.08098 16.318 6.10503 16.423 6.05181 16.4777Z" fill="#386641"/>
<path d="M6.73169 16.7724C6.70958 16.8438 6.60706 16.8763 6.50375 16.8459C6.40048 16.8146 6.33308 16.7309 6.35386 16.6588C6.37523 16.5868 6.47833 16.553 6.58234 16.5855C6.6855 16.6166 6.75307 16.6997 6.73169 16.7724Z" fill="#386641"/>
<path d="M7.47835 16.8271C7.48083 16.9023 7.39319 16.9648 7.28477 16.9661C7.17572 16.9686 7.08733 16.9077 7.08618 16.8336C7.08618 16.7576 7.17184 16.6959 7.28093 16.694C7.38935 16.6919 7.47835 16.7524 7.47835 16.8271Z" fill="#386641"/>
<path d="M8.17312 16.7088C8.18608 16.7822 8.11064 16.8575 8.00292 16.8776C7.89702 16.8971 7.79908 16.8517 7.78552 16.7789C7.77241 16.7037 7.84907 16.6283 7.9549 16.6088C8.06277 16.5901 8.15937 16.6341 8.17312 16.7088Z" fill="#386641"/>
</svg>
