<svg width="138" height="47" viewBox="0 0 138 47" fill="none" xmlns="http://www.w3.org/2000/svg">
<path d="M8.827 42.504C8.827 42.92 8.74467 43.284 8.58 43.596C8.424 43.908 8.19433 44.168 7.891 44.376C7.59633 44.584 7.23667 44.74 6.812 44.844C6.396 44.948 5.93233 45 5.421 45H1.092V35.9H5.317C6.253 35.9 6.98533 36.1123 7.514 36.537C8.05133 36.9617 8.32 37.5337 8.32 38.253V38.279C8.32 38.539 8.28533 38.7687 8.216 38.968C8.15533 39.1673 8.06867 39.3493 7.956 39.514C7.852 39.67 7.72633 39.8087 7.579 39.93C7.44033 40.0513 7.28867 40.1553 7.124 40.242C7.65267 40.4413 8.06867 40.7143 8.372 41.061C8.67533 41.399 8.827 41.8713 8.827 42.478V42.504ZM6.331 38.617V38.591C6.331 38.2877 6.21833 38.058 5.993 37.902C5.76767 37.7373 5.44267 37.655 5.018 37.655H3.042V39.579H4.888C5.33 39.579 5.681 39.5053 5.941 39.358C6.201 39.202 6.331 38.955 6.331 38.617ZM6.838 42.257V42.231C6.838 41.9277 6.721 41.6893 6.487 41.516C6.253 41.334 5.876 41.243 5.356 41.243H3.042V43.245H5.421C5.863 43.245 6.20967 43.167 6.461 43.011C6.71233 42.8463 6.838 42.595 6.838 42.257ZM15.3358 41.711C15.3358 41.8063 15.3315 41.8887 15.3228 41.958C15.3228 42.0273 15.3185 42.1097 15.3098 42.205H10.4608C10.5562 42.6557 10.7512 42.998 11.0458 43.232C11.3492 43.4573 11.7218 43.57 12.1638 43.57C12.4932 43.57 12.7878 43.5137 13.0478 43.401C13.3078 43.2883 13.5765 43.1063 13.8538 42.855L14.9848 43.856C14.6555 44.2633 14.2568 44.584 13.7888 44.818C13.3208 45.0433 12.7705 45.156 12.1378 45.156C11.6178 45.156 11.1325 45.0693 10.6818 44.896C10.2398 44.7227 9.85417 44.4757 9.52484 44.155C9.20417 43.8343 8.95284 43.4573 8.77084 43.024C8.58884 42.582 8.49784 42.0923 8.49784 41.555V41.529C8.49784 41.035 8.58017 40.567 8.74484 40.125C8.91817 39.683 9.1565 39.2973 9.45984 38.968C9.76317 38.6387 10.1228 38.3787 10.5388 38.188C10.9635 37.9973 11.4315 37.902 11.9428 37.902C12.5235 37.902 13.0262 38.006 13.4508 38.214C13.8755 38.422 14.2265 38.7037 14.5038 39.059C14.7898 39.4057 14.9978 39.8087 15.1278 40.268C15.2665 40.7187 15.3358 41.191 15.3358 41.685V41.711ZM13.4118 40.97C13.3512 40.528 13.1952 40.1727 12.9438 39.904C12.6925 39.6267 12.3588 39.488 11.9428 39.488C11.5268 39.488 11.1888 39.6223 10.9288 39.891C10.6775 40.1597 10.5128 40.5193 10.4348 40.97H13.4118ZM77.7082 45H75.7972V44.246C75.5545 44.5147 75.2642 44.7313 74.9262 44.896C74.5882 45.052 74.1765 45.13 73.6912 45.13C73.3619 45.13 73.0499 45.0867 72.7552 45C72.4692 44.9047 72.2179 44.766 72.0012 44.584C71.7845 44.402 71.6112 44.181 71.4812 43.921C71.3599 43.6523 71.2992 43.3447 71.2992 42.998V42.972C71.2992 42.5907 71.3685 42.2613 71.5072 41.984C71.6459 41.7067 71.8365 41.477 72.0792 41.295C72.3305 41.113 72.6252 40.9787 72.9632 40.892C73.3099 40.7967 73.6912 40.749 74.1072 40.749C74.4625 40.749 74.7702 40.775 75.0302 40.827C75.2989 40.879 75.5589 40.9483 75.8102 41.035V40.918C75.8102 40.502 75.6845 40.1857 75.4332 39.969C75.1819 39.7523 74.8092 39.644 74.3152 39.644C73.9339 39.644 73.5959 39.6787 73.3012 39.748C73.0152 39.8087 72.7119 39.8997 72.3912 40.021L71.8972 38.513C72.2785 38.3483 72.6772 38.214 73.0932 38.11C73.5092 38.006 74.0119 37.954 74.6012 37.954C75.6845 37.954 76.4732 38.2183 76.9672 38.747C77.4612 39.2757 77.7082 40.0123 77.7082 40.957V45ZM75.8362 42.543V42.192C75.6629 42.114 75.4679 42.0533 75.2512 42.01C75.0432 41.958 74.8179 41.932 74.5752 41.932C74.1505 41.932 73.8169 42.0143 73.5742 42.179C73.3315 42.3437 73.2102 42.582 73.2102 42.894V42.92C73.2102 43.1887 73.3099 43.3967 73.5092 43.544C73.7085 43.6913 73.9685 43.765 74.2892 43.765C74.7572 43.765 75.1299 43.6523 75.4072 43.427C75.6932 43.2017 75.8362 42.907 75.8362 42.543ZM85.2976 41.529C85.2976 42.1097 85.2066 42.6253 85.0246 43.076C84.8512 43.518 84.6172 43.895 84.3226 44.207C84.0366 44.5103 83.7029 44.74 83.3216 44.896C82.9402 45.052 82.5416 45.13 82.1256 45.13C81.5969 45.13 81.1592 45.026 80.8126 44.818C80.4746 44.61 80.1886 44.3673 79.9546 44.09V45H77.9786V35.51H79.9546V39.033C80.1972 38.7037 80.4876 38.435 80.8256 38.227C81.1722 38.0103 81.6056 37.902 82.1256 37.902C82.5329 37.902 82.9272 37.98 83.3086 38.136C83.6899 38.292 84.0279 38.526 84.3226 38.838C84.6172 39.1413 84.8512 39.5183 85.0246 39.969C85.2066 40.411 85.2976 40.9223 85.2976 41.503V41.529ZM83.3216 41.529V41.503C83.3216 41.217 83.2739 40.957 83.1786 40.723C83.0919 40.4803 82.9706 40.2767 82.8146 40.112C82.6586 39.9387 82.4766 39.8087 82.2686 39.722C82.0692 39.6267 81.8526 39.579 81.6186 39.579C81.3846 39.579 81.1636 39.6267 80.9556 39.722C80.7562 39.8087 80.5786 39.9387 80.4226 40.112C80.2752 40.2767 80.1539 40.4803 80.0586 40.723C79.9719 40.957 79.9286 41.217 79.9286 41.503V41.529C79.9286 41.815 79.9719 42.0793 80.0586 42.322C80.1539 42.556 80.2752 42.7597 80.4226 42.933C80.5786 43.0977 80.7562 43.2277 80.9556 43.323C81.1636 43.4097 81.3846 43.453 81.6186 43.453C81.8526 43.453 82.0692 43.4097 82.2686 43.323C82.4766 43.2277 82.6586 43.0977 82.8146 42.933C82.9706 42.7597 83.0919 42.556 83.1786 42.322C83.2739 42.088 83.3216 41.8237 83.3216 41.529ZM92.523 41.529C92.523 42.0317 92.4277 42.504 92.237 42.946C92.0464 43.3793 91.782 43.7607 91.444 44.09C91.106 44.4193 90.7074 44.6793 90.248 44.87C89.7887 45.0607 89.286 45.156 88.74 45.156C88.2027 45.156 87.7044 45.065 87.245 44.883C86.7857 44.6923 86.387 44.4367 86.049 44.116C85.7197 43.7867 85.4597 43.4053 85.269 42.972C85.0784 42.53 84.983 42.0577 84.983 41.555V41.529C84.983 41.0263 85.0784 40.5583 85.269 40.125C85.4597 39.683 85.724 39.2973 86.062 38.968C86.4 38.6387 86.7987 38.3787 87.258 38.188C87.7174 37.9973 88.22 37.902 88.766 37.902C89.3034 37.902 89.8017 37.9973 90.261 38.188C90.7204 38.37 91.1147 38.6257 91.444 38.955C91.782 39.2757 92.0464 39.657 92.237 40.099C92.4277 40.5323 92.523 41.0003 92.523 41.503V41.529ZM90.573 41.555V41.529C90.573 41.269 90.5297 41.0263 90.443 40.801C90.3564 40.567 90.2307 40.3633 90.066 40.19C89.9014 40.008 89.7064 39.865 89.481 39.761C89.2557 39.657 89.0087 39.605 88.74 39.605C88.454 39.605 88.1984 39.657 87.973 39.761C87.7564 39.8563 87.57 39.9907 87.414 40.164C87.258 40.3373 87.1367 40.541 87.05 40.775C86.972 41.0003 86.933 41.243 86.933 41.503V41.529C86.933 41.789 86.9764 42.036 87.063 42.27C87.1497 42.4953 87.2754 42.699 87.44 42.881C87.6047 43.0543 87.7954 43.193 88.012 43.297C88.2374 43.401 88.4887 43.453 88.766 43.453C89.052 43.453 89.3034 43.4053 89.52 43.31C89.7454 43.206 89.936 43.0673 90.092 42.894C90.248 42.7207 90.365 42.5213 90.443 42.296C90.5297 42.062 90.573 41.815 90.573 41.555ZM98.8548 45H96.8788V44.012C96.7662 44.1593 96.6405 44.3023 96.5018 44.441C96.3718 44.571 96.2245 44.688 96.0598 44.792C95.8952 44.896 95.7132 44.9783 95.5138 45.039C95.3145 45.0997 95.0892 45.13 94.8378 45.13C94.0838 45.13 93.4988 44.9003 93.0828 44.441C92.6755 43.9817 92.4718 43.349 92.4718 42.543V38.032H94.4478V41.919C94.4478 42.387 94.5518 42.7423 94.7598 42.985C94.9678 43.219 95.2625 43.336 95.6438 43.336C96.0252 43.336 96.3242 43.219 96.5408 42.985C96.7662 42.7423 96.8788 42.387 96.8788 41.919V38.032H98.8548V45ZM103.106 44.714C102.898 44.8353 102.669 44.9307 102.417 45C102.166 45.078 101.876 45.117 101.546 45.117C101.243 45.117 100.966 45.0823 100.714 45.013C100.472 44.9523 100.259 44.8397 100.077 44.675C99.9041 44.5103 99.7655 44.298 99.6615 44.038C99.5661 43.7693 99.5185 43.4313 99.5185 43.024V39.722H98.6865V38.032H99.5185V36.251H101.494V38.032H103.132V39.722H101.494V42.699C101.494 43.1497 101.707 43.375 102.131 43.375C102.478 43.375 102.803 43.2927 103.106 43.128V44.714ZM113.036 39.072C113.036 39.6007 112.941 40.0643 112.75 40.463C112.56 40.8617 112.295 41.1953 111.957 41.464C111.628 41.7327 111.238 41.9363 110.787 42.075C110.345 42.205 109.869 42.27 109.357 42.27H107.836V45H105.834V35.9H109.552C110.098 35.9 110.584 35.978 111.008 36.134C111.442 36.2813 111.806 36.4937 112.1 36.771C112.404 37.0483 112.633 37.382 112.789 37.772C112.954 38.1533 113.036 38.578 113.036 39.046V39.072ZM111.008 39.111V39.085C111.008 38.6343 110.861 38.292 110.566 38.058C110.28 37.824 109.886 37.707 109.383 37.707H107.836V40.489H109.422C109.925 40.489 110.315 40.359 110.592 40.099C110.87 39.8303 111.008 39.501 111.008 39.111ZM114.947 45H112.971V35.51H114.947V45ZM121.366 45H119.455V44.246C119.212 44.5147 118.922 44.7313 118.584 44.896C118.246 45.052 117.834 45.13 117.349 45.13C117.02 45.13 116.708 45.0867 116.413 45C116.127 44.9047 115.876 44.766 115.659 44.584C115.442 44.402 115.269 44.181 115.139 43.921C115.018 43.6523 114.957 43.3447 114.957 42.998V42.972C114.957 42.5907 115.026 42.2613 115.165 41.984C115.304 41.7067 115.494 41.477 115.737 41.295C115.988 41.113 116.283 40.9787 116.621 40.892C116.968 40.7967 117.349 40.749 117.765 40.749C118.12 40.749 118.428 40.775 118.688 40.827C118.957 40.879 119.217 40.9483 119.468 41.035V40.918C119.468 40.502 119.342 40.1857 119.091 39.969C118.84 39.7523 118.467 39.644 117.973 39.644C117.592 39.644 117.254 39.6787 116.959 39.748C116.673 39.8087 116.37 39.8997 116.049 40.021L115.555 38.513C115.936 38.3483 116.335 38.214 116.751 38.11C117.167 38.006 117.67 37.954 118.259 37.954C119.342 37.954 120.131 38.2183 120.625 38.747C121.119 39.2757 121.366 40.0123 121.366 40.957V45ZM119.494 42.543V42.192C119.321 42.114 119.126 42.0533 118.909 42.01C118.701 41.958 118.476 41.932 118.233 41.932C117.808 41.932 117.475 42.0143 117.232 42.179C116.989 42.3437 116.868 42.582 116.868 42.894V42.92C116.868 43.1887 116.968 43.3967 117.167 43.544C117.366 43.6913 117.626 43.765 117.947 43.765C118.415 43.765 118.788 43.6523 119.065 43.427C119.351 43.2017 119.494 42.907 119.494 42.543ZM128.019 45H126.043V41.113C126.043 40.645 125.939 40.294 125.731 40.06C125.523 39.8173 125.229 39.696 124.847 39.696C124.466 39.696 124.163 39.8173 123.937 40.06C123.721 40.294 123.612 40.645 123.612 41.113V45H121.636V38.032H123.612V39.02C123.725 38.8727 123.846 38.734 123.976 38.604C124.115 38.4653 124.267 38.344 124.431 38.24C124.596 38.136 124.778 38.0537 124.977 37.993C125.177 37.9323 125.402 37.902 125.653 37.902C126.407 37.902 126.988 38.1317 127.395 38.591C127.811 39.0503 128.019 39.683 128.019 40.489V45ZM132.219 44.714C132.011 44.8353 131.781 44.9307 131.53 45C131.279 45.078 130.988 45.117 130.659 45.117C130.356 45.117 130.078 45.0823 129.827 45.013C129.584 44.9523 129.372 44.8397 129.19 44.675C129.017 44.5103 128.878 44.298 128.774 44.038C128.679 43.7693 128.631 43.4313 128.631 43.024V39.722H127.799V38.032H128.631V36.251H130.607V38.032H132.245V39.722H130.607V42.699C130.607 43.1497 130.819 43.375 131.244 43.375C131.591 43.375 131.916 43.2927 132.219 43.128V44.714ZM137.38 42.881C137.38 43.271 137.311 43.609 137.172 43.895C137.042 44.1723 136.856 44.402 136.613 44.584C136.371 44.766 136.085 44.9047 135.755 45C135.435 45.0867 135.088 45.13 134.715 45.13C134.221 45.13 133.714 45.0477 133.194 44.883C132.683 44.7097 132.193 44.441 131.725 44.077L132.57 42.777C132.952 43.0543 133.329 43.2623 133.701 43.401C134.083 43.5397 134.438 43.609 134.767 43.609C135.053 43.609 135.261 43.5613 135.391 43.466C135.53 43.3707 135.599 43.245 135.599 43.089V43.063C135.599 42.959 135.56 42.868 135.482 42.79C135.404 42.712 135.296 42.647 135.157 42.595C135.027 42.5343 134.876 42.478 134.702 42.426C134.529 42.374 134.347 42.3177 134.156 42.257C133.914 42.1877 133.667 42.1053 133.415 42.01C133.173 41.906 132.952 41.776 132.752 41.62C132.553 41.4553 132.388 41.256 132.258 41.022C132.137 40.788 132.076 40.502 132.076 40.164V40.138C132.076 39.7827 132.141 39.4707 132.271 39.202C132.41 38.9247 132.592 38.6907 132.817 38.5C133.051 38.3093 133.32 38.1663 133.623 38.071C133.935 37.9757 134.269 37.928 134.624 37.928C135.066 37.928 135.513 38.0017 135.963 38.149C136.423 38.2877 136.843 38.4827 137.224 38.734L136.47 40.099C136.124 39.8997 135.786 39.7437 135.456 39.631C135.127 39.5097 134.837 39.449 134.585 39.449C134.343 39.449 134.161 39.4967 134.039 39.592C133.918 39.6787 133.857 39.7913 133.857 39.93V39.956C133.857 40.0513 133.896 40.138 133.974 40.216C134.052 40.2853 134.156 40.3547 134.286 40.424C134.416 40.4847 134.564 40.5453 134.728 40.606C134.902 40.6667 135.084 40.7273 135.274 40.788C135.517 40.866 135.764 40.9613 136.015 41.074C136.267 41.178 136.492 41.308 136.691 41.464C136.891 41.62 137.055 41.8107 137.185 42.036C137.315 42.2613 137.38 42.5343 137.38 42.855V42.881Z" fill="#6A994E"/>
<path d="M24.983 45H18.054V35.9H24.918V37.681H20.043V39.527H24.333V41.308H20.043V43.219H24.983V45ZM32.1319 45H30.1559V43.999C29.9133 44.3283 29.6186 44.6013 29.2719 44.818C28.9339 45.026 28.5049 45.13 27.9849 45.13C27.5776 45.13 27.1833 45.052 26.8019 44.896C26.4206 44.74 26.0826 44.5103 25.7879 44.207C25.4933 43.895 25.2549 43.518 25.0729 43.076C24.8996 42.6253 24.8129 42.1097 24.8129 41.529V41.503C24.8129 40.9223 24.8996 40.411 25.0729 39.969C25.2549 39.5183 25.4889 39.1413 25.7749 38.838C26.0696 38.526 26.4076 38.292 26.7889 38.136C27.1703 37.98 27.5689 37.902 27.9849 37.902C28.5136 37.902 28.9469 38.006 29.2849 38.214C29.6316 38.422 29.9219 38.6647 30.1559 38.942V35.51H32.1319V45ZM30.1819 41.529V41.503C30.1819 41.217 30.1343 40.957 30.0389 40.723C29.9523 40.4803 29.8309 40.2767 29.6749 40.112C29.5276 39.9387 29.3499 39.8087 29.1419 39.722C28.9426 39.6267 28.7259 39.579 28.4919 39.579C28.2579 39.579 28.0369 39.6267 27.8289 39.722C27.6296 39.8087 27.4519 39.9387 27.2959 40.112C27.1399 40.2767 27.0143 40.476 26.9189 40.71C26.8323 40.944 26.7889 41.2083 26.7889 41.503V41.529C26.7889 41.815 26.8323 42.0793 26.9189 42.322C27.0143 42.556 27.1399 42.7597 27.2959 42.933C27.4519 43.0977 27.6296 43.2277 27.8289 43.323C28.0369 43.4097 28.2579 43.453 28.4919 43.453C28.7259 43.453 28.9426 43.4097 29.1419 43.323C29.3499 43.2277 29.5276 43.0977 29.6749 42.933C29.8309 42.7597 29.9523 42.556 30.0389 42.322C30.1343 42.0793 30.1819 41.815 30.1819 41.529ZM38.7984 45H36.8224V44.012C36.7097 44.1593 36.5841 44.3023 36.4454 44.441C36.3154 44.571 36.1681 44.688 36.0034 44.792C35.8387 44.896 35.6567 44.9783 35.4574 45.039C35.2581 45.0997 35.0327 45.13 34.7814 45.13C34.0274 45.13 33.4424 44.9003 33.0264 44.441C32.6191 43.9817 32.4154 43.349 32.4154 42.543V38.032H34.3914V41.919C34.3914 42.387 34.4954 42.7423 34.7034 42.985C34.9114 43.219 35.2061 43.336 35.5874 43.336C35.9687 43.336 36.2677 43.219 36.4844 42.985C36.7097 42.7423 36.8224 42.387 36.8224 41.919V38.032H38.7984V45ZM45.273 43.882C44.935 44.2547 44.5493 44.5623 44.116 44.805C43.6827 45.039 43.1193 45.156 42.426 45.156C41.906 45.156 41.4207 45.0607 40.97 44.87C40.528 44.6793 40.1467 44.4237 39.826 44.103C39.5053 43.7737 39.254 43.3923 39.072 42.959C38.89 42.517 38.799 42.049 38.799 41.555V41.529C38.799 41.035 38.89 40.567 39.072 40.125C39.254 39.683 39.5053 39.2973 39.826 38.968C40.1467 38.6387 40.528 38.3787 40.97 38.188C41.4207 37.9973 41.9147 37.902 42.452 37.902C43.1107 37.902 43.6567 38.006 44.09 38.214C44.5233 38.422 44.9047 38.708 45.234 39.072L44.025 40.372C43.7997 40.138 43.5657 39.9517 43.323 39.813C43.089 39.6743 42.7943 39.605 42.439 39.605C42.1877 39.605 41.958 39.657 41.75 39.761C41.5507 39.8563 41.373 39.9907 41.217 40.164C41.0697 40.3373 40.9527 40.541 40.866 40.775C40.788 41.0003 40.749 41.243 40.749 41.503V41.529C40.749 41.7977 40.788 42.049 40.866 42.283C40.9527 42.517 41.074 42.7207 41.23 42.894C41.386 43.0673 41.5723 43.206 41.789 43.31C42.0057 43.4053 42.2483 43.453 42.517 43.453C42.8463 43.453 43.1323 43.388 43.375 43.258C43.6263 43.1193 43.8733 42.9373 44.116 42.712L45.273 43.882ZM51.1268 45H49.2158V44.246C48.9731 44.5147 48.6828 44.7313 48.3448 44.896C48.0068 45.052 47.5951 45.13 47.1098 45.13C46.7804 45.13 46.4684 45.0867 46.1738 45C45.8878 44.9047 45.6364 44.766 45.4198 44.584C45.2031 44.402 45.0298 44.181 44.8998 43.921C44.7784 43.6523 44.7178 43.3447 44.7178 42.998V42.972C44.7178 42.5907 44.7871 42.2613 44.9258 41.984C45.0644 41.7067 45.2551 41.477 45.4978 41.295C45.7491 41.113 46.0438 40.9787 46.3818 40.892C46.7284 40.7967 47.1098 40.749 47.5258 40.749C47.8811 40.749 48.1888 40.775 48.4488 40.827C48.7174 40.879 48.9774 40.9483 49.2288 41.035V40.918C49.2288 40.502 49.1031 40.1857 48.8518 39.969C48.6004 39.7523 48.2278 39.644 47.7338 39.644C47.3524 39.644 47.0144 39.6787 46.7198 39.748C46.4338 39.8087 46.1304 39.8997 45.8098 40.021L45.3158 38.513C45.6971 38.3483 46.0958 38.214 46.5118 38.11C46.9278 38.006 47.4304 37.954 48.0198 37.954C49.1031 37.954 49.8918 38.2183 50.3858 38.747C50.8798 39.2757 51.1268 40.0123 51.1268 40.957V45ZM49.2548 42.543V42.192C49.0814 42.114 48.8864 42.0533 48.6698 42.01C48.4618 41.958 48.2364 41.932 47.9938 41.932C47.5691 41.932 47.2354 42.0143 46.9928 42.179C46.7501 42.3437 46.6288 42.582 46.6288 42.894V42.92C46.6288 43.1887 46.7284 43.3967 46.9278 43.544C47.1271 43.6913 47.3871 43.765 47.7078 43.765C48.1758 43.765 48.5484 43.6523 48.8258 43.427C49.1118 43.2017 49.2548 42.907 49.2548 42.543ZM55.3101 44.714C55.1021 44.8353 54.8725 44.9307 54.6211 45C54.3698 45.078 54.0795 45.117 53.7501 45.117C53.4468 45.117 53.1695 45.0823 52.9181 45.013C52.6755 44.9523 52.4631 44.8397 52.2811 44.675C52.1078 44.5103 51.9691 44.298 51.8651 44.038C51.7698 43.7693 51.7221 43.4313 51.7221 43.024V39.722H50.8901V38.032H51.7221V36.251H53.6981V38.032H55.3361V39.722H53.6981V42.699C53.6981 43.1497 53.9105 43.375 54.3351 43.375C54.6818 43.375 55.0068 43.2927 55.3101 43.128V44.714ZM61.8626 41.711C61.8626 41.8063 61.8583 41.8887 61.8496 41.958C61.8496 42.0273 61.8453 42.1097 61.8366 42.205H56.9876C57.083 42.6557 57.278 42.998 57.5726 43.232C57.876 43.4573 58.2486 43.57 58.6906 43.57C59.02 43.57 59.3146 43.5137 59.5746 43.401C59.8346 43.2883 60.1033 43.1063 60.3806 42.855L61.5116 43.856C61.1823 44.2633 60.7836 44.584 60.3156 44.818C59.8476 45.0433 59.2973 45.156 58.6646 45.156C58.1446 45.156 57.6593 45.0693 57.2086 44.896C56.7666 44.7227 56.381 44.4757 56.0516 44.155C55.731 43.8343 55.4796 43.4573 55.2976 43.024C55.1156 42.582 55.0246 42.0923 55.0246 41.555V41.529C55.0246 41.035 55.107 40.567 55.2716 40.125C55.445 39.683 55.6833 39.2973 55.9866 38.968C56.29 38.6387 56.6496 38.3787 57.0656 38.188C57.4903 37.9973 57.9583 37.902 58.4696 37.902C59.0503 37.902 59.553 38.006 59.9776 38.214C60.4023 38.422 60.7533 38.7037 61.0306 39.059C61.3166 39.4057 61.5246 39.8087 61.6546 40.268C61.7933 40.7187 61.8626 41.191 61.8626 41.685V41.711ZM59.9386 40.97C59.878 40.528 59.722 40.1727 59.4706 39.904C59.2193 39.6267 58.8856 39.488 58.4696 39.488C58.0536 39.488 57.7156 39.6223 57.4556 39.891C57.2043 40.1597 57.0396 40.5193 56.9616 40.97H59.9386ZM68.9123 45H66.9363V43.999C66.6936 44.3283 66.399 44.6013 66.0523 44.818C65.7143 45.026 65.2853 45.13 64.7653 45.13C64.358 45.13 63.9636 45.052 63.5823 44.896C63.201 44.74 62.863 44.5103 62.5683 44.207C62.2736 43.895 62.0353 43.518 61.8533 43.076C61.68 42.6253 61.5933 42.1097 61.5933 41.529V41.503C61.5933 40.9223 61.68 40.411 61.8533 39.969C62.0353 39.5183 62.2693 39.1413 62.5553 38.838C62.85 38.526 63.188 38.292 63.5693 38.136C63.9506 37.98 64.3493 37.902 64.7653 37.902C65.294 37.902 65.7273 38.006 66.0653 38.214C66.412 38.422 66.7023 38.6647 66.9363 38.942V35.51H68.9123V45ZM66.9623 41.529V41.503C66.9623 41.217 66.9146 40.957 66.8193 40.723C66.7326 40.4803 66.6113 40.2767 66.4553 40.112C66.308 39.9387 66.1303 39.8087 65.9223 39.722C65.723 39.6267 65.5063 39.579 65.2723 39.579C65.0383 39.579 64.8173 39.6267 64.6093 39.722C64.41 39.8087 64.2323 39.9387 64.0763 40.112C63.9203 40.2767 63.7946 40.476 63.6993 40.71C63.6126 40.944 63.5693 41.2083 63.5693 41.503V41.529C63.5693 41.815 63.6126 42.0793 63.6993 42.322C63.7946 42.556 63.9203 42.7597 64.0763 42.933C64.2323 43.0977 64.41 43.2277 64.6093 43.323C64.8173 43.4097 65.0383 43.453 65.2723 43.453C65.5063 43.453 65.723 43.4097 65.9223 43.323C66.1303 43.2277 66.308 43.0977 66.4553 42.933C66.6113 42.7597 66.7326 42.556 66.8193 42.322C66.9146 42.0793 66.9623 41.815 66.9623 41.529Z" fill="#386641"/>
<path d="M32.968 13.584C32.968 15.048 32.704 16.332 32.176 17.436C31.648 18.54 30.916 19.464 29.98 20.208C29.068 20.952 27.988 21.516 26.74 21.9C25.516 22.26 24.196 22.44 22.78 22.44H18.568V30H13.024V4.8H23.32C24.832 4.8 26.176 5.016 27.352 5.448C28.552 5.856 29.56 6.444 30.376 7.212C31.216 7.98 31.852 8.904 32.284 9.984C32.74 11.04 32.968 12.216 32.968 13.512V13.584ZM27.352 13.692V13.62C27.352 12.372 26.944 11.424 26.128 10.776C25.336 10.128 24.244 9.804 22.852 9.804H18.568V17.508H22.96C24.352 17.508 25.432 17.148 26.2 16.428C26.968 15.684 27.352 14.772 27.352 13.692ZM38.2589 30H32.7869V3.72H38.2589V30ZM56.0342 30H50.7422V27.912C50.0702 28.656 49.2662 29.256 48.3302 29.712C47.3942 30.144 46.2542 30.36 44.9102 30.36C43.9982 30.36 43.1342 30.24 42.3182 30C41.5262 29.736 40.8302 29.352 40.2302 28.848C39.6302 28.344 39.1502 27.732 38.7902 27.012C38.4542 26.268 38.2862 25.416 38.2862 24.456V24.384C38.2862 23.328 38.4782 22.416 38.8622 21.648C39.2462 20.88 39.7742 20.244 40.4462 19.74C41.1422 19.236 41.9582 18.864 42.8942 18.624C43.8542 18.36 44.9102 18.228 46.0622 18.228C47.0462 18.228 47.8982 18.3 48.6182 18.444C49.3622 18.588 50.0822 18.78 50.7782 19.02V18.696C50.7782 17.544 50.4302 16.668 49.7342 16.068C49.0382 15.468 48.0062 15.168 46.6382 15.168C45.5822 15.168 44.6462 15.264 43.8302 15.456C43.0382 15.624 42.1982 15.876 41.3102 16.212L39.9422 12.036C40.9982 11.58 42.1022 11.208 43.2542 10.92C44.4062 10.632 45.7982 10.488 47.4302 10.488C50.4302 10.488 52.6142 11.22 53.9822 12.684C55.3502 14.148 56.0342 16.188 56.0342 18.804V30ZM50.8502 23.196V22.224C50.3702 22.008 49.8302 21.84 49.2302 21.72C48.6542 21.576 48.0302 21.504 47.3582 21.504C46.1822 21.504 45.2582 21.732 44.5862 22.188C43.9142 22.644 43.5782 23.304 43.5782 24.168V24.24C43.5782 24.984 43.8542 25.56 44.4062 25.968C44.9582 26.376 45.6782 26.58 46.5662 26.58C47.8622 26.58 48.8942 26.268 49.6622 25.644C50.4542 25.02 50.8502 24.204 50.8502 23.196ZM74.4588 30H68.9868V19.236C68.9868 17.94 68.6988 16.968 68.1228 16.32C67.5468 15.648 66.7308 15.312 65.6748 15.312C64.6188 15.312 63.7788 15.648 63.1548 16.32C62.5548 16.968 62.2548 17.94 62.2548 19.236V30H56.7828V10.704H62.2548V13.44C62.5668 13.032 62.9028 12.648 63.2628 12.288C63.6468 11.904 64.0668 11.568 64.5228 11.28C64.9788 10.992 65.4828 10.764 66.0348 10.596C66.5868 10.428 67.2108 10.344 67.9068 10.344C69.9948 10.344 71.6028 10.98 72.7308 12.252C73.8828 13.524 74.4588 15.276 74.4588 17.508V30ZM86.0885 29.208C85.5125 29.544 84.8765 29.808 84.1805 30C83.4845 30.216 82.6805 30.324 81.7685 30.324C80.9285 30.324 80.1605 30.228 79.4645 30.036C78.7925 29.868 78.2045 29.556 77.7005 29.1C77.2205 28.644 76.8365 28.056 76.5485 27.336C76.2845 26.592 76.1525 25.656 76.1525 24.528V15.384H73.8485V10.704H76.1525V5.772H81.6245V10.704H86.1605V15.384H81.6245V23.628C81.6245 24.876 82.2125 25.5 83.3885 25.5C84.3485 25.5 85.2485 25.272 86.0885 24.816V29.208Z" fill="#6A994E"/>
<path d="M105.638 30H87.5299V4.8H105.458V6.528H89.4019V16.428H103.838V18.156H89.4019V28.272H105.638V30ZM124.004 30H122.24V25.896C121.832 26.496 121.376 27.072 120.872 27.624C120.392 28.176 119.84 28.656 119.216 29.064C118.616 29.472 117.932 29.796 117.164 30.036C116.42 30.3 115.592 30.432 114.68 30.432C113.576 30.432 112.484 30.216 111.404 29.784C110.348 29.352 109.4 28.728 108.56 27.912C107.72 27.096 107.036 26.1 106.508 24.924C106.004 23.724 105.752 22.38 105.752 20.892V20.82C105.752 19.332 106.004 18 106.508 16.824C107.036 15.624 107.72 14.616 108.56 13.8C109.4 12.96 110.348 12.324 111.404 11.892C112.484 11.436 113.576 11.208 114.68 11.208C115.592 11.208 116.432 11.328 117.2 11.568C117.968 11.808 118.652 12.132 119.252 12.54C119.876 12.948 120.428 13.416 120.908 13.944C121.412 14.472 121.856 15.024 122.24 15.6V3.72H124.004V30ZM122.348 20.856V20.784C122.348 19.608 122.132 18.54 121.7 17.58C121.292 16.596 120.74 15.768 120.044 15.096C119.348 14.4 118.544 13.86 117.632 13.476C116.744 13.092 115.82 12.9 114.86 12.9C113.852 12.9 112.904 13.08 112.016 13.44C111.152 13.8 110.396 14.316 109.748 14.988C109.1 15.66 108.584 16.488 108.2 17.472C107.84 18.432 107.66 19.524 107.66 20.748V20.82C107.66 22.02 107.852 23.112 108.236 24.096C108.62 25.08 109.136 25.92 109.784 26.616C110.456 27.288 111.224 27.816 112.088 28.2C112.976 28.56 113.9 28.74 114.86 28.74C115.82 28.74 116.744 28.548 117.632 28.164C118.544 27.78 119.348 27.24 120.044 26.544C120.74 25.848 121.292 25.02 121.7 24.06C122.132 23.1 122.348 22.032 122.348 20.856Z" fill="#386641"/>
<g clip-path="url(#clip0_9_6)">
<path d="M56.777 2.45824L56.6853 1.83207L56.0961 2.06208C55.0872 2.47077 53.996 2.63566 52.9113 2.54335C51.7705 2.42486 50.6197 2.63948 49.5983 3.16127C49.0562 3.42518 48.5886 3.8205 48.2383 4.31124C47.888 4.80199 47.666 5.37256 47.5925 5.97103C47.4971 6.74417 47.604 7.52885 47.9028 8.24828C48.0521 7.85929 48.2305 7.4821 48.4365 7.11991C48.9063 6.34765 49.5795 5.71956 50.3824 5.30444C51.1559 4.90298 52.0126 4.68824 52.884 4.67745C52.0625 4.84614 51.2851 5.18375 50.6011 5.66887C50.2711 5.90033 49.972 6.17283 49.7109 6.47981C49.4619 6.78617 49.2454 7.11757 49.0649 7.46866C48.7297 8.20053 48.5042 8.97777 48.3954 9.77537C48.2753 10.5761 48.229 11.3862 48.2573 12.1954L49.2561 12.145C49.2669 11.4175 49.3289 10.6916 49.4417 9.97284C50.1534 10.312 50.9401 10.4635 51.7268 10.4131C52.4611 10.3755 53.1804 10.1911 53.8422 9.87073C57.5603 8.05585 56.7883 2.68295 56.777 2.45824Z" fill="#6A994E"/>
</g>
<defs>
<clipPath id="clip0_9_6">
<rect width="12" height="12" fill="white" transform="translate(45.705 1.31031) rotate(-2.89154)"/>
</clipPath>
</defs>
</svg>
