<svg width="118" height="37" viewBox="0 0 118 37" fill="none" xmlns="http://www.w3.org/2000/svg">
<path d="M22.968 13.584C22.968 15.048 22.704 16.332 22.176 17.436C21.648 18.54 20.916 19.464 19.98 20.208C19.068 20.952 17.988 21.516 16.74 21.9C15.516 22.26 14.196 22.44 12.78 22.44H8.568V30H3.024V4.8H13.32C14.832 4.8 16.176 5.016 17.352 5.448C18.552 5.856 19.56 6.444 20.376 7.212C21.216 7.98 21.852 8.904 22.284 9.984C22.74 11.04 22.968 12.216 22.968 13.512V13.584ZM17.352 13.692V13.62C17.352 12.372 16.944 11.424 16.128 10.776C15.336 10.128 14.244 9.804 12.852 9.804H8.568V17.508H12.96C14.352 17.508 15.432 17.148 16.2 16.428C16.968 15.684 17.352 14.772 17.352 13.692ZM28.2589 30H22.7869V3.72H28.2589V30ZM46.0342 30H40.7422V27.912C40.0702 28.656 39.2662 29.256 38.3302 29.712C37.3942 30.144 36.2542 30.36 34.9102 30.36C33.9982 30.36 33.1342 30.24 32.3182 30C31.5262 29.736 30.8302 29.352 30.2302 28.848C29.6302 28.344 29.1502 27.732 28.7902 27.012C28.4542 26.268 28.2862 25.416 28.2862 24.456V24.384C28.2862 23.328 28.4782 22.416 28.8622 21.648C29.2462 20.88 29.7742 20.244 30.4462 19.74C31.1422 19.236 31.9582 18.864 32.8942 18.624C33.8542 18.36 34.9102 18.228 36.0622 18.228C37.0462 18.228 37.8982 18.3 38.6182 18.444C39.3622 18.588 40.0822 18.78 40.7782 19.02V18.696C40.7782 17.544 40.4302 16.668 39.7342 16.068C39.0382 15.468 38.0062 15.168 36.6382 15.168C35.5822 15.168 34.6462 15.264 33.8302 15.456C33.0382 15.624 32.1982 15.876 31.3102 16.212L29.9422 12.036C30.9982 11.58 32.1022 11.208 33.2542 10.92C34.4062 10.632 35.7982 10.488 37.4302 10.488C40.4302 10.488 42.6142 11.22 43.9822 12.684C45.3502 14.148 46.0342 16.188 46.0342 18.804V30ZM40.8502 23.196V22.224C40.3702 22.008 39.8302 21.84 39.2302 21.72C38.6542 21.576 38.0302 21.504 37.3582 21.504C36.1822 21.504 35.2582 21.732 34.5862 22.188C33.9142 22.644 33.5782 23.304 33.5782 24.168V24.24C33.5782 24.984 33.8542 25.56 34.4062 25.968C34.9582 26.376 35.6782 26.58 36.5662 26.58C37.8622 26.58 38.8942 26.268 39.6622 25.644C40.4542 25.02 40.8502 24.204 40.8502 23.196ZM64.4588 30H58.9868V19.236C58.9868 17.94 58.6988 16.968 58.1228 16.32C57.5468 15.648 56.7308 15.312 55.6748 15.312C54.6188 15.312 53.7788 15.648 53.1548 16.32C52.5548 16.968 52.2548 17.94 52.2548 19.236V30H46.7828V10.704H52.2548V13.44C52.5668 13.032 52.9028 12.648 53.2628 12.288C53.6468 11.904 54.0668 11.568 54.5228 11.28C54.9788 10.992 55.4828 10.764 56.0348 10.596C56.5868 10.428 57.2108 10.344 57.9068 10.344C59.9948 10.344 61.6028 10.98 62.7308 12.252C63.8828 13.524 64.4588 15.276 64.4588 17.508V30ZM76.0885 29.208C75.5125 29.544 74.8765 29.808 74.1805 30C73.4845 30.216 72.6805 30.324 71.7685 30.324C70.9285 30.324 70.1605 30.228 69.4645 30.036C68.7925 29.868 68.2045 29.556 67.7005 29.1C67.2205 28.644 66.8365 28.056 66.5485 27.336C66.2845 26.592 66.1525 25.656 66.1525 24.528V15.384H63.8485V10.704H66.1525V5.772H71.6245V10.704H76.1605V15.384H71.6245V23.628C71.6245 24.876 72.2125 25.5 73.3885 25.5C74.3485 25.5 75.2485 25.272 76.0885 24.816V29.208Z" fill="#6A994E"/>
<path d="M95.6379 30H77.5299V4.8H95.4579V6.528H79.4019V16.428H93.8379V18.156H79.4019V28.272H95.6379V30ZM114.004 30H112.24V25.896C111.832 26.496 111.376 27.072 110.872 27.624C110.392 28.176 109.84 28.656 109.216 29.064C108.616 29.472 107.932 29.796 107.164 30.036C106.42 30.3 105.592 30.432 104.68 30.432C103.576 30.432 102.484 30.216 101.404 29.784C100.348 29.352 99.3996 28.728 98.5596 27.912C97.7196 27.096 97.0356 26.1 96.5076 24.924C96.0036 23.724 95.7516 22.38 95.7516 20.892V20.82C95.7516 19.332 96.0036 18 96.5076 16.824C97.0356 15.624 97.7196 14.616 98.5596 13.8C99.3996 12.96 100.348 12.324 101.404 11.892C102.484 11.436 103.576 11.208 104.68 11.208C105.592 11.208 106.432 11.328 107.2 11.568C107.968 11.808 108.652 12.132 109.252 12.54C109.876 12.948 110.428 13.416 110.908 13.944C111.412 14.472 111.856 15.024 112.24 15.6V3.72H114.004V30ZM112.348 20.856V20.784C112.348 19.608 112.132 18.54 111.7 17.58C111.292 16.596 110.74 15.768 110.044 15.096C109.348 14.4 108.544 13.86 107.632 13.476C106.744 13.092 105.82 12.9 104.86 12.9C103.852 12.9 102.904 13.08 102.016 13.44C101.152 13.8 100.396 14.316 99.7476 14.988C99.0996 15.66 98.5836 16.488 98.1996 17.472C97.8396 18.432 97.6596 19.524 97.6596 20.748V20.82C97.6596 22.02 97.8516 23.112 98.2356 24.096C98.6196 25.08 99.1356 25.92 99.7836 26.616C100.456 27.288 101.224 27.816 102.088 28.2C102.976 28.56 103.9 28.74 104.86 28.74C105.82 28.74 106.744 28.548 107.632 28.164C108.544 27.78 109.348 27.24 110.044 26.544C110.74 25.848 111.292 25.02 111.7 24.06C112.132 23.1 112.348 22.032 112.348 20.856Z" fill="#386641"/>
<g clip-path="url(#clip0_9_5)">
<path d="M46.777 2.45824L46.6853 1.83207L46.0961 2.06208C45.0872 2.47077 43.996 2.63566 42.9113 2.54335C41.7705 2.42486 40.6197 2.63948 39.5983 3.16127C39.0562 3.42518 38.5886 3.8205 38.2383 4.31124C37.888 4.80199 37.666 5.37256 37.5925 5.97103C37.4971 6.74417 37.604 7.52885 37.9028 8.24828C38.0521 7.85929 38.2305 7.4821 38.4365 7.11991C38.9063 6.34765 39.5795 5.71956 40.3824 5.30444C41.1559 4.90298 42.0126 4.68824 42.884 4.67745C42.0625 4.84614 41.2851 5.18375 40.6011 5.66887C40.2711 5.90033 39.972 6.17283 39.7109 6.47981C39.4619 6.78617 39.2454 7.11757 39.0649 7.46866C38.7297 8.20053 38.5042 8.97777 38.3954 9.77537C38.2753 10.5761 38.229 11.3862 38.2573 12.1954L39.2561 12.145C39.2669 11.4175 39.3289 10.6916 39.4417 9.97284C40.1534 10.312 40.9401 10.4635 41.7268 10.4131C42.4611 10.3755 43.1804 10.1911 43.8422 9.87073C47.5603 8.05585 46.7883 2.68295 46.777 2.45824Z" fill="#6A994E"/>
</g>
<defs>
<clipPath id="clip0_9_5">
<rect width="12" height="12" fill="white" transform="translate(35.705 1.31031) rotate(-2.89154)"/>
</clipPath>
</defs>
</svg>
