<svg width="32" height="33" viewBox="0 0 32 33" fill="none" xmlns="http://www.w3.org/2000/svg">
<path d="M24.0413 22.8484L29.752 28.7361L27.8653 30.6818L22.156 24.7926C20.0316 26.5488 17.3893 27.504 14.6666 27.5C8.04263 27.5 2.66663 21.956 2.66663 15.125C2.66663 8.294 8.04263 2.75 14.6666 2.75C21.2906 2.75 26.6666 8.294 26.6666 15.125C26.6705 17.9328 25.7443 20.6576 24.0413 22.8484ZM21.3666 21.8281C23.0584 20.0333 24.0034 17.628 24 15.125C24 9.80788 19.8226 5.5 14.6666 5.5C9.51063 5.5 5.33329 9.80788 5.33329 15.125C5.33329 20.4421 9.51063 24.75 14.6666 24.75C17.0938 24.7535 19.4262 23.779 21.1666 22.0344L21.3666 21.8281Z" fill="#C6C6C6"/>
</svg>
