<svg width="7" height="8" viewBox="0 0 7 8" fill="none" xmlns="http://www.w3.org/2000/svg">
<path d="M3.79999 6.79368L1.99999 7.56606C1.71427 7.68764 1.44284 7.66447 1.1857 7.49655C0.928559 7.32863 0.799988 7.09076 0.799988 6.78295V1.21535C0.799988 0.979346 0.883988 0.777381 1.05199 0.609459C1.21999 0.441537 1.4217 0.357433 1.65713 0.357147H5.94284C6.17856 0.357147 6.38042 0.441251 6.54842 0.609459C6.71642 0.777667 6.80027 0.979632 6.79999 1.21535V6.78295C6.79999 7.09048 6.67142 7.32834 6.41427 7.49655C6.15713 7.66476 5.8857 7.68793 5.59999 7.56606L3.79999 6.79368ZM3.79999 5.84966L5.94284 6.77223V1.21535H1.65713V6.77223L3.79999 5.84966ZM3.79999 1.21535H1.65713H5.94284H3.79999Z" fill="white"/>
</svg>
