<svg width="20" height="20" viewBox="0 0 20 20" fill="none" xmlns="http://www.w3.org/2000/svg">
<path d="M16.0477 12.4274C15.2984 12.8828 14.4378 13.1224 13.561 13.1195C12.8264 13.1137 12.1001 12.9635 11.4235 12.6774C10.902 13.4135 10.6229 14.2939 10.625 15.1961V17.5C10.6252 17.5857 10.6078 17.6705 10.5738 17.7492C10.5399 17.8278 10.4901 17.8986 10.4276 17.9573C10.3651 18.0159 10.2912 18.061 10.2105 18.0899C10.1299 18.1187 10.0441 18.1307 9.95862 18.125C9.79798 18.111 9.64855 18.0368 9.54032 17.9173C9.43209 17.7978 9.37304 17.6417 9.37503 17.4805V16.5086L6.35784 13.4914C5.90932 13.6587 5.43498 13.7463 4.95628 13.75C4.29726 13.7517 3.65057 13.5714 3.08753 13.2289C1.38519 12.1945 0.468779 9.81407 0.646123 6.8586C0.655052 6.7057 0.719816 6.5614 0.828118 6.4531C0.93642 6.34479 1.08072 6.28003 1.23362 6.2711C4.18909 6.09688 6.56956 7.01016 7.60081 8.71251C8.00598 9.37976 8.18286 10.1608 8.10472 10.9375C8.09986 10.9977 8.07767 11.0552 8.04084 11.103C8.00401 11.1508 7.95411 11.187 7.89717 11.2071C7.84023 11.2271 7.7787 11.2303 7.72 11.2162C7.66131 11.202 7.60797 11.1712 7.56644 11.1274L6.06644 9.55704C5.94827 9.44478 5.79093 9.38311 5.62795 9.3852C5.46498 9.38729 5.30926 9.45296 5.19401 9.56821C5.07876 9.68346 5.01309 9.83917 5.011 10.0021C5.00892 10.1651 5.07058 10.3225 5.18284 10.4406L9.39222 14.757C9.3969 14.6961 9.40237 14.6352 9.40862 14.575C9.5453 13.4162 10.0566 12.3338 10.8649 11.4922L14.8172 7.31563C14.9345 7.19846 15.0004 7.0395 15.0005 6.87372C15.0006 6.70794 14.9348 6.54892 14.8176 6.43165C14.7004 6.31437 14.5415 6.24845 14.3757 6.24837C14.2099 6.2483 14.0509 6.31409 13.9336 6.43126L10.1055 10.4797C10.0672 10.5203 10.0187 10.5499 9.96507 10.5654C9.91145 10.5809 9.85465 10.5817 9.80058 10.5679C9.74652 10.554 9.69716 10.5259 9.65763 10.4865C9.6181 10.4471 9.58985 10.3978 9.57581 10.3438C9.2055 8.97813 9.36878 7.61876 10.0758 6.45157C11.4711 4.14845 14.718 2.91563 18.7617 3.15313C18.9146 3.16206 19.0589 3.22683 19.1673 3.33513C19.2756 3.44343 19.3403 3.58773 19.3492 3.74063C19.5836 7.78516 18.3508 11.032 16.0477 12.4274Z" fill="#386641"/>
</svg>
