<svg width="182" height="118" viewBox="0 0 182 118" fill="none" xmlns="http://www.w3.org/2000/svg">
<g clip-path="url(#clip0_46_2)">
<rect width="181.6" height="118" rx="6" fill="#386641"/>
<rect y="-8" width="197" height="156" rx="7" fill="url(#paint0_linear_46_2)"/>
<path fill-rule="evenodd" clip-rule="evenodd" d="M97.8981 25.2394C98.7386 24.5952 100.042 25.0056 100.888 25.3859C101.214 25.5325 102.047 26.0015 102.665 26.5293C102.583 26.1636 102.511 25.7944 102.447 25.4224C102.186 23.8927 102.006 22.3338 101.919 20.7842C101.897 20.3799 101.926 19.9284 101.956 19.4708V19.4701C101.966 19.3153 101.976 19.1598 101.984 19.0052C101.95 18.9688 101.927 18.9182 101.918 18.8499C101.914 18.8784 101.912 18.901 101.911 18.9185C101.908 18.9466 101.907 18.9607 101.902 18.9617C101.898 18.9629 101.89 18.951 101.874 18.927C101.868 18.9177 101.861 18.9065 101.852 18.8937C101.227 17.9559 100.702 16.8989 100.63 15.7371C100.569 14.7519 101.376 12.8876 102.52 14.1782C103.032 14.7546 102.899 18.8025 102.13 19.0504C102.335 20.3918 102.594 21.731 102.917 23.0529C102.966 23.0444 103.015 23.0437 103.064 23.0502C103.059 22.7217 103.059 22.363 103.072 22.2396C103.187 21.1772 104.072 19.0203 105.48 19.439C106.563 19.7609 105.899 21.0858 105.531 21.6656C104.938 22.5992 104.268 23.0033 103.418 23.4888C103.401 23.6896 103.272 23.8062 103.12 23.8441C103.689 25.9791 104.436 28.0614 105.414 30.0285L105.44 29.9034C105.564 29.3063 105.709 28.6103 105.8 28.4641C106.279 27.6988 107.34 26.7643 108.319 27.217C110.373 28.1693 108.143 30.906 106.394 31.2037C106.321 31.3045 106.244 31.3857 106.162 31.4321C106.502 32.0257 106.865 32.6072 107.254 33.1737C107.837 34.0256 108.463 34.8747 109.12 35.7191C109.141 35.0586 109.4 33.5868 109.474 33.4286C109.923 32.4682 111.215 31.4799 112.264 32.1623C113.444 32.9316 112.374 34.385 111.701 35.0428C111.426 35.3126 110.062 36.3011 109.581 36.3055C111.167 38.2964 112.919 40.253 114.699 42.1392C114.552 41.2948 114.359 38.9697 114.381 38.7117C114.491 37.3795 115.364 35.2489 117.083 35.7682C118.75 36.271 118.013 38.4842 117.442 39.5393C117.096 40.178 116.618 40.8268 116.041 41.2722C115.937 41.3524 115.801 41.418 115.666 41.4834C115.503 41.5621 115.34 41.6408 115.233 41.7451C115.138 41.8379 115.109 41.9446 115.08 42.0503C115.05 42.1618 115.019 42.2724 114.912 42.365C115.874 43.3797 116.844 44.3734 117.799 45.3396C118.249 45.7954 118.708 46.2425 119.172 46.6841C119.425 46.5786 119.787 46.7174 119.768 47.0777C119.765 47.13 119.753 47.1752 119.737 47.2165C120.088 47.5443 120.441 47.8699 120.798 48.1919C120.79 48.0981 120.792 47.9657 120.808 47.7832C120.552 48.1491 120.563 47.616 120.571 47.2095C120.574 47.0658 120.576 46.9383 120.566 46.8714C120.529 46.6102 120.48 46.3517 120.431 46.0933C120.327 45.5417 120.224 44.9921 120.229 44.4227C120.24 43.2143 121.003 41.1886 122.608 41.9084C124.083 42.5686 123.546 44.3595 122.99 45.4824C122.637 46.193 122.155 46.8275 121.651 47.4347C121.561 47.5431 121.461 47.6899 121.363 47.8354C121.216 48.0512 121.072 48.2636 120.965 48.3428C122.335 49.5753 123.737 50.7716 125.14 51.9679L125.141 51.9686C125.768 52.5042 126.397 53.04 127.022 53.579C127.049 53.4607 127.072 53.3433 127.091 53.2337C127.052 53.2779 126.998 53.2986 126.93 53.2945C126.912 53.2038 126.886 53.0833 126.854 52.9385C126.468 51.1714 125.292 45.7886 128.477 46.8318C130.81 47.5983 129.163 52.2853 127.422 53.9248C128.479 54.8402 129.525 55.7675 130.546 56.7222C131.286 57.4131 132.003 58.1275 132.693 58.866C132.336 57.9098 132 56.6722 132.221 55.6873C132.542 54.2538 134.049 52.9006 135.52 53.7161C137.354 54.7372 135.943 56.132 134.62 57.4398C133.945 58.1076 133.292 58.7528 133.106 59.3139C135.3 61.7359 137.173 64.4266 138.424 67.4916C139.785 70.8249 141.049 75.3036 140.35 79.0327C140.479 77.3929 139.927 75.3342 139.54 73.8881C139.487 73.6913 139.437 73.5059 139.393 73.3343C138.81 71.0917 137.983 68.9098 136.893 66.8676C135.147 63.5965 132.84 60.82 130.177 58.2991C129.571 58.5112 128.912 58.9039 128.367 59.229C128.032 59.4286 127.74 59.6028 127.529 59.6942C126.51 60.1354 124.554 60.768 123.905 59.378C123.267 58.0114 124.896 57.2469 125.905 56.9405C126.881 56.645 127.76 56.6807 128.671 56.923C127.261 55.6683 125.817 54.4536 124.374 53.2391L124.374 53.2388C124.108 53.0152 123.843 52.7919 123.577 52.5684C123.21 52.8704 122.805 53.3071 122.375 53.7707C121.009 55.2421 119.391 56.9854 117.946 55.5612C115.765 53.4118 119.936 51.2272 121.713 51.3978C121.931 51.4187 122.142 51.4649 122.348 51.5276C120.536 49.9833 118.751 48.407 117.064 46.7198C116.761 46.7754 116.279 47.2226 115.7 47.7601C114.399 48.9678 112.607 50.6304 111.258 49.3214C110.283 48.3763 110.617 46.9045 111.559 46.063C112.504 45.2178 113.875 45.2193 115.04 45.5038C115.543 45.6263 116.008 45.8601 116.441 46.1449C116.459 46.1458 116.477 46.1468 116.495 46.1478C114.834 44.4701 113.164 42.7547 111.555 40.9808C111.527 40.9898 111.498 40.9993 111.469 41.0088C111.372 41.1283 111.209 41.1721 111.06 41.1456C110.977 41.174 110.893 41.2032 110.808 41.2328C109.533 41.6744 107.895 42.242 106.625 41.9973C105.69 41.817 104.842 41.054 105.633 40.1145C106.276 39.3505 108.022 39.4601 108.873 39.6412C109.289 39.7296 109.741 39.9857 110.194 40.2428C110.385 40.3507 110.576 40.4589 110.765 40.5548C110.814 40.4557 110.899 40.392 110.996 40.3614C109.408 38.5788 107.892 36.7346 106.516 34.8103C106.1 34.8749 105.639 35.0586 105.163 35.2479C104.017 35.7036 102.787 36.1925 101.905 35.1393C100.602 33.5846 103.052 32.677 104.217 32.8247C104.61 32.8745 104.998 32.9863 105.372 33.1343C104.372 31.5499 103.607 29.8565 103.071 28.0777C103.066 28.0804 103.061 28.083 103.056 28.0857V28.0859C103.048 28.0901 103.041 28.0944 103.031 28.0986C103.039 28.094 103.047 28.0896 103.054 28.085C103.059 28.0816 103.064 28.0782 103.07 28.0748C103.016 27.8969 102.965 27.7183 102.916 27.5387C102.825 27.4879 102.74 27.4505 102.699 27.4352C103.228 27.8014 100.996 27.9807 100.578 28.0143C99.6537 28.0884 98.4153 28.1161 97.7372 27.3557C97.1677 26.7171 97.2012 25.7738 97.8981 25.2394ZM140.449 79.0381C140.41 79.5783 140.313 80.0732 140.131 80.4812C140.267 80.0166 140.372 79.5338 140.449 79.0381Z" fill="#F2F2F2"/>
<path opacity="0.2" fill-rule="evenodd" clip-rule="evenodd" d="M55.9327 -9.27249C55.3193 -9.73796 54.3674 -9.44062 53.7494 -9.16537C53.5114 -9.05921 52.9029 -8.71981 52.4517 -8.33793C52.5115 -8.60251 52.5649 -8.86937 52.6114 -9.13842C52.8028 -10.2447 52.9347 -11.3719 52.9987 -12.4925C53.0151 -12.7848 52.9938 -13.1114 52.9722 -13.4422V-13.4424C52.965 -13.5544 52.9577 -13.6669 52.9519 -13.7788C52.9766 -13.8052 52.9933 -13.8417 53.0004 -13.8912C53.0028 -13.8707 53.0042 -13.8542 53.0054 -13.8417C53.0074 -13.8213 53.0081 -13.8111 53.0115 -13.8103C53.0146 -13.8094 53.0205 -13.8181 53.0319 -13.8354C53.0362 -13.8421 53.0415 -13.8502 53.0478 -13.8595C53.5047 -14.5379 53.8885 -15.3023 53.9416 -16.1424C53.9864 -16.8549 53.398 -18.2027 52.5622 -17.2691C52.1883 -16.8521 52.2838 -13.9251 52.845 -13.746C52.6945 -12.776 52.5055 -11.8077 52.269 -10.8516C52.2336 -10.8578 52.1975 -10.8583 52.1619 -10.8534C52.1652 -11.0911 52.1657 -11.3504 52.156 -11.4396C52.0722 -12.2078 51.4271 -13.7671 50.3988 -13.4638C49.6086 -13.2307 50.0923 -12.273 50.361 -11.8538C50.7934 -11.179 51.2829 -10.8869 51.9028 -10.5361C51.9152 -10.3911 52.0094 -10.3068 52.1204 -10.2794C51.7046 -8.73538 51.1583 -7.22935 50.4437 -5.8067L50.4248 -5.8971C50.3341 -6.32877 50.2287 -6.83205 50.1618 -6.93773C49.8124 -7.49085 49.0381 -8.16627 48.3237 -7.83851C46.8231 -7.14924 48.4504 -5.17115 49.7275 -4.95656C49.7806 -4.88368 49.8366 -4.82507 49.8965 -4.79149C49.6481 -4.36203 49.3827 -3.94149 49.0987 -3.53179C48.6726 -2.91552 48.2151 -2.30123 47.7353 -1.69052C47.7207 -2.16804 47.5315 -3.23224 47.4777 -3.34655C47.1505 -4.04083 46.2071 -4.75489 45.441 -4.26116C44.5793 -3.70452 45.3599 -2.65385 45.8508 -2.17842C46.052 -1.98351 47.0475 -1.2693 47.3989 -1.26626C46.2395 0.174033 44.96 1.58952 43.6591 2.95397C43.7672 2.34331 43.9087 0.661981 43.8932 0.475355C43.813 -0.487782 43.1766 -2.02807 41.9215 -1.65205C40.7035 -1.28779 41.2415 0.312302 41.6579 1.07508C41.9101 1.53679 42.2589 2.00578 42.6798 2.32751C42.7557 2.38559 42.8548 2.43273 42.9537 2.48012C43.0729 2.53698 43.1919 2.59384 43.2697 2.66917C43.339 2.73624 43.3603 2.81327 43.3812 2.88982C43.4034 2.9705 43.4255 3.05045 43.5038 3.11727C42.8007 3.85138 42.0929 4.57042 41.3952 5.26929C41.0658 5.59905 40.7307 5.92273 40.3921 6.24203C40.207 6.16597 39.9431 6.26633 39.9566 6.52683C39.9586 6.56474 39.9676 6.5973 39.9792 6.62719C39.7228 6.86436 39.4647 7.09983 39.2044 7.33286C39.2105 7.26507 39.2088 7.16932 39.1969 7.03737C39.384 7.302 39.3762 6.91636 39.3704 6.62257C39.3685 6.51856 39.3665 6.42623 39.3736 6.37811C39.4012 6.18906 39.4371 6.00219 39.4727 5.81532C39.5488 5.41655 39.6246 5.01876 39.621 4.60711C39.6133 3.73352 39.0573 2.26895 37.8851 2.78995C36.8074 3.26793 37.1988 4.56289 37.605 5.37451C37.8619 5.88822 38.2137 6.34676 38.5816 6.78587C38.647 6.86411 38.72 6.97031 38.792 7.07528C38.8988 7.23129 39.0042 7.38487 39.0823 7.44221C38.0814 8.33379 37.0573 9.19936 36.0329 10.0649H36.0327L36.0324 10.0652C35.5734 10.453 35.1147 10.8406 34.6579 11.2306C34.6383 11.1451 34.6218 11.0603 34.6077 10.9808C34.6363 11.0129 34.6751 11.0279 34.725 11.025C34.7383 10.9594 34.7575 10.8722 34.7807 10.7675C35.0633 9.48951 35.9241 5.59662 33.5984 6.35235C31.8942 6.90737 33.095 10.296 34.3651 11.4809C33.5938 12.1431 32.8294 12.814 32.0833 13.5049C31.5431 14.0045 31.0192 14.5216 30.5148 15.0557C30.7761 14.3641 31.0221 13.4691 30.8611 12.7569C30.627 11.7207 29.5273 10.7427 28.453 11.3329C27.1136 12.0721 28.1433 13.0799 29.1088 14.0251C29.6017 14.5077 30.0779 14.9741 30.2136 15.3799C28.611 17.1319 27.2423 19.0784 26.3275 21.295C25.3324 23.7058 24.4081 26.9448 24.917 29.6412C24.8235 28.4555 25.227 26.9664 25.5105 25.9208C25.5493 25.7784 25.5856 25.6443 25.6181 25.5201C26.0442 23.8983 26.649 22.3202 27.4456 20.8433C28.7218 18.4774 30.407 16.4688 32.3523 14.6448C32.7948 14.7979 33.2756 15.0817 33.6737 15.3167C33.9178 15.4608 34.131 15.5867 34.2852 15.6528C35.0289 15.9716 36.457 16.4282 36.9315 15.4229C37.398 14.4341 36.2089 13.882 35.4719 13.6609C34.7597 13.4475 34.1175 13.4738 33.4527 13.6492C34.4824 12.7416 35.5371 11.8624 36.5915 10.9837C36.7856 10.8221 36.9795 10.6605 37.1731 10.4987C37.4412 10.7169 37.7368 11.0326 38.0509 11.3677C39.0476 12.431 40.2283 13.691 41.2839 12.6604C42.8771 11.1055 39.8326 9.52741 38.5351 9.65159C38.3756 9.66665 38.2215 9.70019 38.0712 9.74563C39.3951 8.62806 40.6982 7.48766 41.931 6.26706C42.152 6.30715 42.5039 6.63035 42.9263 7.01866H42.9265C43.8763 7.89153 45.1837 9.09317 46.1695 8.14595C46.881 7.46238 46.6382 6.39828 45.9509 5.79005C45.261 5.17914 44.2604 5.18084 43.4095 5.38715C43.0419 5.47584 42.7026 5.64497 42.3863 5.85104C42.3728 5.85177 42.3599 5.8525 42.3471 5.85323C43.56 4.63943 44.7802 3.39842 45.9558 2.11513C45.9761 2.12169 45.9972 2.1285 46.0183 2.1353C46.0893 2.22181 46.2083 2.2534 46.3171 2.2342C46.3767 2.25437 46.4375 2.27527 46.4996 2.29665L46.501 2.29714C47.4314 2.61596 48.6273 3.0259 49.5548 2.84827C50.2374 2.71778 50.8571 2.16568 50.2796 1.48649C49.8102 0.934386 48.5357 1.01433 47.9141 1.14555C47.6107 1.20971 47.2804 1.39512 46.9491 1.58101C46.8098 1.65926 46.6704 1.73751 46.5325 1.80701C46.4969 1.73532 46.4346 1.68915 46.3636 1.66704C47.5242 0.377425 48.6319 -0.956556 49.6367 -2.34857C49.9403 -2.30191 50.2774 -2.16935 50.6249 -2.03264C51.4613 -1.70364 52.3589 -1.35056 53.0035 -2.1123C53.9552 -3.23713 52.1667 -3.89246 51.3163 -3.78522C51.0292 -3.74906 50.7459 -3.66799 50.4725 -3.56098C51.2036 -4.70697 51.7622 -5.9318 52.1551 -7.21808C52.1587 -7.21618 52.1623 -7.21422 52.1657 -7.21227C52.1713 -7.20919 52.1769 -7.2061 52.1837 -7.20316C52.1776 -7.20632 52.1725 -7.20965 52.1674 -7.21295C52.1635 -7.21541 52.1597 -7.21784 52.1556 -7.22022C52.1948 -7.34889 52.2324 -7.47816 52.2682 -7.6079C52.3346 -7.64469 52.3967 -7.67179 52.4265 -7.68294C52.04 -7.41787 53.6699 -7.28908 53.975 -7.26498C54.65 -7.21176 55.5539 -7.1922 56.0495 -7.74219C56.4653 -8.20416 56.4413 -8.88636 55.9327 -9.27249ZM24.816 29.5347C24.8458 29.8948 24.9342 30.2234 25.1087 30.4926C24.9808 30.185 24.8848 29.8645 24.816 29.5347Z" fill="#C1DEE2"/>
<g opacity="0.7">
<path fill-rule="evenodd" clip-rule="evenodd" d="M122.219 54.258C125.527 54.0859 129.619 56.0224 129.972 59.6286C130.228 62.2486 130.149 64.8614 130.546 67.4778C130.863 69.5685 131.534 71.5757 132.449 73.4804C133.33 75.3119 135.155 76.871 135.63 78.8276C135.932 80.0745 135.763 81.8282 135.346 83.0476C134.838 84.5304 135.108 84.4133 136.119 85.6575C138.101 88.0955 139.886 90.5957 141.147 93.5076C142.965 97.7018 144.157 102.604 143.482 107.195C143.396 107.778 143.295 109.871 142.494 110.017C141.6 110.18 142.018 108.984 142.066 108.597C142.37 106.131 142.64 103.975 142.273 101.471C140.857 91.8061 133.943 85.4387 129.441 77.2365C129.193 76.8134 128.671 75.8062 128.308 75.1418C127.734 74.0925 127.157 72.0965 126.381 71.3184C124.919 69.8531 126.263 72.7993 126.548 73.3616C126.908 74.0731 127.304 74.8293 127.674 75.4526C129.363 78.3424 131.248 81.4965 132.993 84.4755C125.448 86.1991 120.134 77.1038 118.11 71.1242C116.441 66.1979 114.445 54.6796 122.219 54.258Z" fill="white"/>
<path fill-rule="evenodd" clip-rule="evenodd" d="M166.563 45.1092C161.032 45.5493 157.481 49.2089 155.829 54.3275C154.938 57.0858 154.835 59.9194 154.34 62.7543C153.596 67.019 151.993 70.2511 148.862 73.2896C147.892 74.2305 147.177 75.1967 146.669 76.2304C145.661 77.2625 144.783 78.4303 144.138 79.8582C143.314 81.6817 143.08 83.8697 144.032 85.6876C144.288 86.1765 144.926 87.1575 145.587 87.6032C143.111 92.8909 141.75 98.6821 141.903 104.466C141.996 107.957 142.166 111.45 142.364 114.937C142.417 115.873 142.722 117.42 143.178 115.849C143.596 114.413 143.072 112.158 143.024 110.658C142.787 103.348 142.586 96.7019 145.587 89.8726C145.901 89.1567 146.235 88.4466 146.582 87.7424C146.603 87.7305 146.622 87.7162 146.641 87.7023C146.654 87.7125 146.666 87.7234 146.679 87.7336C146.702 87.6938 146.732 87.6467 146.767 87.5939C146.867 87.4907 146.954 87.3604 147.037 87.2151C147.303 86.8452 147.604 86.4105 147.606 86.1726C147.606 86.1709 147.605 86.168 147.605 86.166C149.463 83.1254 151.59 80.2524 153.764 77.4352C153.747 77.4559 156.121 74.215 155.754 76.0071C155.577 76.871 153.831 78.5156 153.126 79.4305C151.566 81.4657 149.734 84.0446 148.212 86.5383C148.007 86.6564 147.718 87.2357 147.509 87.6676C147.393 87.8863 147.285 88.1067 147.179 88.2989C152.573 90.0857 156.769 86.4863 159.63 82.2999C159.633 82.2948 159.636 82.2897 159.639 82.2848C160.51 81.1281 161.402 79.9795 162.516 79.065C164.375 77.539 166.366 77.2698 168.557 76.5189C174.535 74.4711 177.076 66.7038 177.883 60.9405C178.793 54.4385 174.339 44.4682 166.563 45.1092Z" fill="white"/>
<path fill-rule="evenodd" clip-rule="evenodd" d="M155.638 26.9011C149.961 32.825 147.218 41.0418 145.047 48.7666C142.622 57.3941 141.02 66.1548 140.958 75.125C140.918 81.0185 140.758 86.9487 141.101 92.8352C141.223 94.9258 141.431 97.0202 141.761 99.0881C141.788 99.2582 142.528 103.876 143.235 102.8C143.637 102.188 142.477 98.0097 142.39 97.3137C141.896 93.3939 141.782 89.4453 141.806 85.4973C141.845 78.9968 141.654 72.5298 142.311 66.0533C142.409 65.0861 142.487 64.0706 142.716 63.1246C142.959 62.1188 142.649 62.5579 143.441 62.1597C144.211 61.7728 145.162 61.828 145.961 61.3424C149.129 59.4162 150.75 54.4682 152.011 51.2217C153.454 47.5093 154.33 43.5503 155.031 39.6434C155.545 36.773 155.913 33.9199 156.121 31.0124C156.186 30.0961 156.19 29.1379 156.37 28.2369C156.418 27.9939 156.661 27.564 156.652 27.3487C156.633 26.8931 156.359 26.6253 156.337 26.2425C156.099 26.4569 155.866 26.6765 155.638 26.9011Z" fill="white"/>
<path fill-rule="evenodd" clip-rule="evenodd" d="M124.685 105.83C124.685 115.627 132.606 123.569 142.376 123.569C152.146 123.569 160.067 115.627 160.067 105.83" fill="white"/>
<path fill-rule="evenodd" clip-rule="evenodd" d="M154.5 90.2988C158.878 89.9751 163.768 93.5171 165.88 97.2029C167.582 100.175 167.295 104.077 166.244 107.234C165.54 109.348 164.003 112.362 161.44 112.391C158.233 112.428 158.078 108.454 158.016 106.131C157.934 103.042 157.545 100.351 155.118 98.2459C154.818 97.9861 154.503 97.7429 154.189 97.4996C153.91 97.2836 153.631 97.0678 153.362 96.8404C153.319 96.8039 153.276 96.7677 153.233 96.7313C152.374 96.0079 151.473 95.2482 151.363 94.0558C151.204 92.3281 152.177 92.017 153.662 92.338C153.71 92.3485 153.84 92.3978 154.017 92.4651C154.776 92.7533 156.394 93.3686 156.088 92.6333C155.973 92.3563 155.552 92.1366 155.02 91.9721C153.645 91.8222 152.005 91.6482 151.533 91.7522C146.445 92.8714 144.464 99.9387 143.938 104.429C143.881 104.913 143.836 105.4 143.795 105.887H142.861C142.926 104.711 143.011 103.537 143.207 102.374C143.957 97.9261 146.302 91.3937 151.444 90.6718C151.634 90.6451 152.332 90.6404 153.177 90.6903C153.578 90.4657 154.027 90.3299 154.5 90.2988Z" fill="white"/>
</g>
<g opacity="0.5">
<path fill-rule="evenodd" clip-rule="evenodd" d="M47.1905 21.8598C48.2088 20.4037 50.0988 16.7057 51.532 16.1854C52.4553 15.8503 52.1861 19.3167 52.1974 19.9777C52.2418 22.5351 51.9936 25.0761 51.6871 27.6118C51.1345 32.1854 49.3284 36.2581 46.8509 40.1505C45.5762 42.1533 44.0808 44.1807 42.0097 45.4302C41.0566 46.0059 39.9096 46.1021 38.9681 46.5981C37.8715 47.1752 38.4687 46.7086 37.9745 47.8541C37.2885 49.4448 37.0689 51.497 36.7514 53.1941C35.2938 60.9855 31.7643 102.172 32.3762 110.097C32.4305 110.799 31.4539 110.967 31.4049 110.11C31.1459 105.563 33.3885 74.0752 34.5202 63.778C35.6517 53.4806 36.7967 44.3833 37.9447 40.8209C39.3377 36.4987 41.8532 31.3011 43.9472 27.2704C44.92 25.3981 45.9802 23.5899 47.1905 21.8598Z" fill="white"/>
<path fill-rule="evenodd" clip-rule="evenodd" d="M54.7494 72.3635C57.3993 70.4127 60.2679 74.0944 57.8697 76.0455C56.5441 77.1239 55.1582 76.7405 54.3781 75.8416C53.8716 76.4608 53.3976 77.1082 52.942 77.6547C51.5541 79.3209 50.2426 81.0266 48.9889 82.772C46.3848 86.3986 44.153 90.2298 41.8196 93.9907C39.5168 97.7028 37.2325 101.434 35.1453 105.24C33.3772 108.465 31.0204 112.258 30.415 115.793C31.3335 108.296 34.8188 101.089 38.9692 94.4799C43.0858 87.9244 47.81 80.7653 54.184 75.5921C53.5352 74.6354 53.5173 73.2699 54.7494 72.3635Z" fill="#C1DEE2"/>
<path fill-rule="evenodd" clip-rule="evenodd" d="M4.46365 54.0784C5.94657 54.369 8.36968 57.7329 9.59207 59.0145C11.0448 60.5376 12.3628 62.1609 13.6051 63.8619C16.2796 67.523 18.6715 71.4154 20.7054 75.4745C24.0212 82.0916 26.6777 88.8845 28.6055 96.0902C29.7857 100.501 30.5498 105.073 31.0025 109.613C31.088 110.469 31.9832 117.07 30.6933 117.248C29.5332 117.408 29.8916 112.236 29.8356 111.532C29.2029 103.594 27.3075 95.8708 24.6714 88.389C24.097 86.7592 23.5636 84.763 22.6452 83.2962C21.9839 82.2399 22.6404 82.6083 21.4782 82.2085C20.4803 81.8649 19.3433 81.949 18.3214 81.5284C16.1014 80.6157 14.3238 78.8434 12.7657 77.0608C9.73759 73.5963 7.33799 69.8485 6.08718 65.4093C5.39333 62.9482 4.75571 60.4725 4.40187 57.9351C4.31034 57.2792 3.50849 53.891 4.46365 54.0784Z" fill="white"/>
<path fill-rule="evenodd" clip-rule="evenodd" d="M10.3157 -1.88856C15.9016 7.82519 20.4919 18.4956 23.4558 29.3031C25.2517 35.8513 26.5076 42.5708 27.7554 49.2414C29.6873 59.5705 31.5148 69.8985 32.0346 80.411C32.5576 90.9843 33.5916 103.18 30.139 113.363C31.8637 103.024 30.2217 92.0185 29.9308 81.6151C29.792 76.6486 29.3895 71.7308 28.8612 66.7932C28.3486 62.0036 27.5113 57.2369 26.7317 52.485C26.352 50.1707 25.9531 47.86 25.5469 45.5505C25.4255 44.8613 25.3744 42.8167 24.9384 42.346C24.4998 41.8722 22.2613 41.679 21.5586 41.3312C20.1434 40.6312 18.8123 39.6365 17.6343 38.5856C15.3759 36.5708 13.4112 33.9384 11.8605 31.3434C8.27262 25.3393 6.83818 18.0118 6.91069 11.0581C6.9246 9.70797 9.08996 -4.83034 8.22032 -5.03055C8.27269 -5.09205 8.3222 -5.15552 8.3689 -5.22157C9.02729 -4.11621 9.67336 -3.00335 10.3157 -1.88856Z" fill="white"/>
<path fill-rule="evenodd" clip-rule="evenodd" d="M70.6061 33.1453C70.6923 33.0206 71.2534 32.1538 70.9708 32.2092C71.5459 32.0962 70.1798 33.1652 71.6127 32.5093C70.9323 33.1538 71.3251 33.9907 71.3341 34.8579C71.3488 36.2661 71.114 37.6624 70.8496 39.0402C70.4316 41.2183 69.809 43.3358 68.9053 45.3614C66.9358 49.776 63.5915 54.0257 59.6213 56.7857C57.6612 58.1482 55.7405 58.6123 53.5051 59.2395C52.093 59.6358 51.981 60.3683 51.2315 61.7422C49.6713 64.6038 48.1387 67.4549 46.7625 70.413C45.1194 73.9455 43.5243 77.4816 42.0197 81.0761C36.9506 93.1837 32.825 105.728 30.6585 118.709C30.6054 111.059 32.3704 103.18 34.5965 95.8886C36.2183 90.5761 38.3293 85.4548 40.5811 80.3855C41.1266 79.1574 41.9535 77.5776 42.1854 76.2217C42.3475 75.2716 41.8515 74.3581 41.6244 73.3572C40.7389 69.4602 40.8024 65.0941 41.5798 61.1762C42.4372 56.8559 44.9163 54.8507 49.1103 54.2388C50.644 54.0147 52.5937 54.0969 54 53.441C55.5323 52.7271 56.1643 50.3797 57.0358 48.8731C59.376 44.8254 62.1566 40.9437 65.3495 37.5334C66.2335 36.5891 67.1842 35.7177 68.1928 34.9102C68.829 34.4006 70.1728 33.7729 70.6061 33.1453Z" fill="white"/>
<path fill-rule="evenodd" clip-rule="evenodd" d="M22.3803 111.839C22.2724 111.106 22.8394 110.447 23.5789 110.447H38.4629C39.2023 110.447 39.7694 111.106 39.6615 111.839L38.5111 119.661C38.1605 122.046 36.12 123.812 33.7162 123.812H28.3256C25.9218 123.812 23.8813 122.046 23.5307 119.661L22.3803 111.839Z" fill="#C1DEE2"/>
</g>
<path fill-rule="evenodd" clip-rule="evenodd" d="M10.1597 114.446C10.1597 119.619 10.5668 123.812 16.0311 123.812C21.4953 123.812 21.9024 119.619 21.9024 114.446" fill="#F2F2F2"/>
<path fill-rule="evenodd" clip-rule="evenodd" d="M17.6566 111.219C17.4563 111.566 17.2777 111.92 17.12 112.28C17.1144 111.539 17.1552 110.793 17.2667 110.037C17.4573 108.742 17.7484 107.454 18.0219 106.168C18.2185 105.243 18.2061 103.583 18.9522 102.846C19.1568 102.687 19.206 103 19.206 103.135C19.2086 103.164 19.2054 102.582 19.0069 102.683C17.8265 103.294 17.4441 105.216 17.0662 106.179C16.5148 107.584 16.0457 109.019 15.8525 110.481C15.8037 110.85 15.7772 111.219 15.771 111.587C15.7309 111.489 15.6932 111.39 15.6515 111.291C14.9703 109.689 14.0509 108.126 12.9043 106.684C12.622 106.329 9.07313 102.829 8.79531 103.365C8.82272 103.443 8.88011 103.507 8.96762 103.558C8.97276 103.564 8.9729 103.561 8.96992 103.552C9.17833 103.89 9.77095 104.411 9.95554 104.707C10.4201 105.452 10.7811 106.242 11.148 107.017C11.9232 108.654 12.6423 110.309 13.3394 111.966C13.5017 112.352 13.6709 112.736 13.8435 113.119C12.0643 110.546 9.69071 108.209 6.42334 106.872C7.53929 107.441 8.27094 108.512 9.02459 109.332C9.93354 110.322 10.8909 111.284 11.8016 112.272C12.8757 113.438 14.1396 114.665 15.1727 115.955C16.1735 118.062 17.146 120.171 17.7463 122.385C17.5003 121.62 17.727 120.563 17.6849 119.76C17.6515 119.121 17.577 118.487 17.4749 117.854C17.6011 118.139 17.7099 118.425 17.7591 118.691C17.7141 118.245 17.6623 117.802 17.6066 117.362C17.7496 116.95 17.8899 116.565 17.9847 116.248C18.4705 114.622 19.049 113.024 19.8367 111.466C20.5657 110.025 21.4018 108.603 22.3129 107.224C22.7379 106.581 23.1688 105.94 23.597 105.299C23.8771 104.878 24.144 104.206 24.5341 103.803C22.0121 106.116 19.2567 108.444 17.6566 111.219Z" fill="#F2F2F2"/>
<path fill-rule="evenodd" clip-rule="evenodd" d="M170.641 5.67147C169.918 3.25336 168.221 1.36062 166.459 -0.373421C163.028 -3.74942 161.183 -5.83676 159.961 -10.7752C159.242 -13.6796 158.51 -16.7574 156.229 -18.8646C154.569 -20.3991 151.711 -21.6884 149.491 -20.5896C146.074 -18.5449 145.157 -14.3491 145.502 -10.5919C145.929 -5.93515 148.098 -3.06379 152.265 -1.34861C154.614 -0.382606 156.174 0.892108 157.449 3.11314C158.469 4.889 159.063 7.11295 160.344 8.72284C162.26 11.1298 164.657 12.1995 167.612 11.7997C164.844 6.69402 161.611 1.54019 157.711 -2.7587C157.346 -3.19088 155.192 -4.84512 155.627 -5.58168C156.105 -6.39267 158.316 -3.34618 158.3 -3.3646C159.433 -2.06005 160.482 -0.673748 161.512 0.725894C161.51 0.727109 161.506 0.728081 161.503 0.729296C162.564 2.16568 163.616 3.62296 164.648 5.09847C165.065 5.72274 165.471 6.35479 165.86 7.00287C166.431 7.95374 167.336 10.6525 168.27 11.2372C168.47 11.3621 168.654 11.4321 168.827 11.4607C169.464 12.5069 170.084 13.5612 170.674 14.628C172.213 17.4143 173.535 20.3561 174.141 23.5017C174.318 24.42 174.193 27.8544 174.818 28.5173C175.961 29.7296 175.626 27.3949 175.558 26.6901C174.99 20.8549 172.901 15.8836 169.867 10.9779C170.799 9.75754 170.934 6.65125 170.641 5.67147Z" fill="#F2F2F2"/>
<path fill-rule="evenodd" clip-rule="evenodd" d="M131.503 8.49102C132.707 7.06776 135.603 6.82622 137.374 6.92147C139.566 7.03933 141.817 7.57442 143.902 8.22129C147.337 9.28661 150.675 11.2311 153.7 13.1132C154.064 13.3399 158.556 16.0481 158.158 16.5234C157.764 16.9944 153.355 13.7773 152.373 13.2228C150.276 12.0393 148.353 10.6396 146.041 9.85791C143.648 9.04847 141.117 8.72795 138.6 8.75006C138.277 8.75298 137.224 8.52723 137.201 9.00643C137.179 9.47494 138.922 9.23048 139.23 9.23339C140.499 9.24506 141.777 9.36486 143.028 9.58551C145.373 9.99885 147.578 10.8314 149.586 12.1086C149.026 13.4152 147.683 14.0176 146.273 13.6905C145.055 13.4079 143.868 12.7108 142.675 12.5093C141.854 12.3705 141.031 12.4532 140.235 12.6852C138.134 13.2974 136.922 14.5517 134.612 13.6791C132.801 12.9953 129.772 10.5378 131.503 8.49102Z" fill="#F2F2F2"/>
<path d="M89.2318 56.776V47.8H90.4638V59H89.4558L82.2238 49.816V59H80.9918V47.8H82.1758L89.2318 56.776ZM100.736 54.856C100.736 55.4427 100.624 56.0027 100.4 56.536C100.187 57.0587 99.8884 57.5173 99.5044 57.912C99.1204 58.3067 98.6618 58.6213 98.1284 58.856C97.5951 59.08 97.0191 59.192 96.4004 59.192C95.7818 59.192 95.2111 59.08 94.6884 58.856C94.1658 58.6213 93.7124 58.312 93.3284 57.928C92.9444 57.5333 92.6458 57.0747 92.4324 56.552C92.2191 56.0293 92.1124 55.4747 92.1124 54.888C92.1124 54.3013 92.2191 53.7467 92.4324 53.224C92.6458 52.6907 92.9444 52.2267 93.3284 51.832C93.7124 51.4373 94.1658 51.128 94.6884 50.904C95.2218 50.6693 95.8031 50.552 96.4324 50.552C97.0511 50.552 97.6218 50.6693 98.1444 50.904C98.6778 51.128 99.1364 51.4373 99.5204 51.832C99.9044 52.216 100.203 52.6693 100.416 53.192C100.63 53.7147 100.736 54.2693 100.736 54.856ZM99.4724 54.888C99.4724 54.44 99.3924 54.0187 99.2324 53.624C99.0831 53.2293 98.8698 52.888 98.5924 52.6C98.3151 52.3013 97.9898 52.0667 97.6164 51.896C97.2431 51.7253 96.8378 51.64 96.4004 51.64C95.9524 51.64 95.5418 51.7253 95.1684 51.896C94.7951 52.056 94.4751 52.2853 94.2084 52.584C93.9524 52.872 93.7498 53.2133 93.6004 53.608C93.4511 53.992 93.3764 54.408 93.3764 54.856C93.3764 55.304 93.4511 55.7253 93.6004 56.12C93.7604 56.5147 93.9738 56.856 94.2404 57.144C94.5178 57.432 94.8431 57.6613 95.2164 57.832C95.5898 58.0027 95.9951 58.088 96.4324 58.088C96.8804 58.088 97.2911 58.008 97.6644 57.848C98.0378 57.6773 98.3578 57.448 98.6244 57.16C98.8911 56.872 99.0991 56.536 99.2484 56.152C99.3978 55.7573 99.4724 55.336 99.4724 54.888ZM69.1788 62.8H70.4428V74H69.1788V62.8ZM79.2751 67.2C79.4244 66.976 79.5897 66.7627 79.7711 66.56C79.9631 66.3573 80.1764 66.1813 80.4111 66.032C80.6457 65.8827 80.9071 65.7653 81.1951 65.68C81.4937 65.5947 81.8244 65.552 82.1871 65.552C83.1471 65.552 83.8991 65.8507 84.4431 66.448C84.9871 67.0347 85.2591 67.8453 85.2591 68.88V74H84.0271V69.168C84.0271 68.368 83.8351 67.7547 83.4511 67.328C83.0777 66.8907 82.5551 66.672 81.8831 66.672C81.5737 66.672 81.2804 66.7307 81.0031 66.848C80.7257 66.9547 80.4804 67.12 80.2671 67.344C80.0644 67.5573 79.8991 67.824 79.7711 68.144C79.6537 68.464 79.5951 68.8267 79.5951 69.232V74H78.3791V69.136C78.3791 68.3573 78.1871 67.7547 77.8031 67.328C77.4297 66.8907 76.9124 66.672 76.2511 66.672C75.9204 66.672 75.6164 66.736 75.3391 66.864C75.0617 66.992 74.8164 67.1733 74.6031 67.408C74.4004 67.6427 74.2404 67.92 74.1231 68.24C74.0057 68.5493 73.9471 68.896 73.9471 69.28V74H72.7151V65.728H73.9471V67.12C74.0857 66.9173 74.2351 66.72 74.3951 66.528C74.5657 66.336 74.7577 66.1707 74.9711 66.032C75.1844 65.8827 75.4244 65.7653 75.6911 65.68C75.9577 65.5947 76.2671 65.552 76.6191 65.552C77.2911 65.552 77.8457 65.712 78.2831 66.032C78.7204 66.3413 79.0511 66.7307 79.2751 67.2ZM90.1258 66.704C89.6351 66.704 89.1871 66.7627 88.7818 66.88C88.3871 66.9867 87.9978 67.1307 87.6138 67.312L87.2458 66.304C87.7045 66.0907 88.1685 65.9253 88.6378 65.808C89.1071 65.68 89.6458 65.616 90.2538 65.616C91.3845 65.616 92.2538 65.8987 92.8618 66.464C93.4698 67.0187 93.7738 67.8453 93.7738 68.944V74H92.5898V72.752C92.3018 73.1253 91.9125 73.456 91.4218 73.744C90.9418 74.032 90.3338 74.176 89.5978 74.176C89.2138 74.176 88.8351 74.1227 88.4618 74.016C88.0991 73.9093 87.7685 73.7493 87.4698 73.536C87.1818 73.312 86.9471 73.04 86.7658 72.72C86.5951 72.4 86.5098 72.0213 86.5098 71.584C86.5098 71.1467 86.5951 70.7627 86.7658 70.432C86.9365 70.0907 87.1765 69.808 87.4858 69.584C87.8058 69.36 88.1791 69.1893 88.6058 69.072C89.0431 68.9547 89.5231 68.896 90.0458 68.896C90.5791 68.896 91.0431 68.928 91.4378 68.992C91.8325 69.056 92.2165 69.1413 92.5898 69.248V68.96C92.5898 68.2133 92.3711 67.6533 91.9338 67.28C91.5071 66.896 90.9045 66.704 90.1258 66.704ZM90.1738 69.808C89.3951 69.808 88.7978 69.9627 88.3818 70.272C87.9658 70.5813 87.7578 71.0027 87.7578 71.536C87.7578 71.8027 87.8111 72.0373 87.9178 72.24C88.0351 72.4427 88.1898 72.6187 88.3818 72.768C88.5738 72.9067 88.7925 73.0133 89.0378 73.088C89.2938 73.1627 89.5605 73.2 89.8378 73.2C90.2218 73.2 90.5791 73.1467 90.9098 73.04C91.2511 72.9227 91.5445 72.768 91.7898 72.576C92.0458 72.3733 92.2431 72.1387 92.3818 71.872C92.5311 71.5947 92.6058 71.2907 92.6058 70.96V70.16C92.2965 70.0747 91.9391 69.9947 91.5338 69.92C91.1391 69.8453 90.6858 69.808 90.1738 69.808ZM103.471 72.56C103.471 73.232 103.37 73.8187 103.167 74.32C102.975 74.8213 102.693 75.2373 102.319 75.568C101.957 75.9093 101.514 76.1653 100.991 76.336C100.479 76.5067 99.9034 76.592 99.2634 76.592C98.5701 76.592 97.9088 76.496 97.2794 76.304C96.6501 76.112 96.0581 75.824 95.5034 75.44L96.0634 74.48C96.5434 74.8213 97.0448 75.0827 97.5674 75.264C98.0901 75.4453 98.6501 75.536 99.2474 75.536C100.165 75.536 100.895 75.2853 101.439 74.784C101.983 74.2933 102.255 73.5627 102.255 72.592V71.616C101.893 72.096 101.45 72.5067 100.927 72.848C100.405 73.1893 99.7648 73.36 99.0074 73.36C98.5061 73.36 98.0208 73.2747 97.5514 73.104C97.0928 72.9227 96.6821 72.6667 96.3194 72.336C95.9568 71.9947 95.6634 71.584 95.4394 71.104C95.2261 70.624 95.1194 70.08 95.1194 69.472C95.1194 68.864 95.2261 68.32 95.4394 67.84C95.6634 67.3493 95.9568 66.9387 96.3194 66.608C96.6821 66.2667 97.0981 66.0053 97.5674 65.824C98.0368 65.6427 98.5168 65.552 99.0074 65.552C99.3914 65.552 99.7434 65.6 100.063 65.696C100.394 65.7813 100.687 65.8987 100.943 66.048C101.21 66.1973 101.45 66.3733 101.663 66.576C101.877 66.7787 102.069 66.992 102.239 67.216V65.728H103.471V72.56ZM102.287 69.456C102.287 69.0293 102.202 68.6453 102.031 68.304C101.861 67.952 101.631 67.6533 101.343 67.408C101.066 67.1627 100.746 66.976 100.383 66.848C100.021 66.7093 99.6421 66.64 99.2474 66.64C98.8528 66.64 98.4794 66.704 98.1274 66.832C97.7861 66.96 97.4821 67.1467 97.2154 67.392C96.9594 67.6373 96.7568 67.936 96.6074 68.288C96.4581 68.6293 96.3834 69.0133 96.3834 69.44C96.3834 69.8667 96.4581 70.256 96.6074 70.608C96.7674 70.9493 96.9754 71.248 97.2314 71.504C97.4981 71.7493 97.8021 71.9413 98.1434 72.08C98.4954 72.208 98.8634 72.272 99.2474 72.272C99.6421 72.272 100.021 72.208 100.383 72.08C100.746 71.9413 101.066 71.7493 101.343 71.504C101.631 71.2587 101.861 70.9653 102.031 70.624C102.202 70.272 102.287 69.8827 102.287 69.456ZM106.16 70.32C106.203 70.768 106.31 71.168 106.48 71.52C106.651 71.8613 106.87 72.1547 107.136 72.4C107.403 72.6347 107.702 72.816 108.032 72.944C108.363 73.0613 108.71 73.12 109.072 73.12C109.648 73.12 110.139 73.0133 110.544 72.8C110.96 72.5867 111.339 72.304 111.68 71.952L112.448 72.64C112.032 73.1093 111.558 73.488 111.024 73.776C110.491 74.0533 109.83 74.192 109.04 74.192C108.475 74.192 107.942 74.0907 107.44 73.888C106.939 73.6747 106.502 73.3813 106.128 73.008C105.755 72.624 105.456 72.1653 105.232 71.632C105.019 71.0987 104.912 70.512 104.912 69.872C104.912 69.2747 105.008 68.7147 105.2 68.192C105.403 67.6587 105.68 67.2 106.032 66.816C106.384 66.4213 106.8 66.112 107.28 65.888C107.771 65.664 108.304 65.552 108.88 65.552C109.488 65.552 110.032 65.6693 110.512 65.904C110.992 66.128 111.398 66.4373 111.728 66.832C112.059 67.2267 112.31 67.6907 112.48 68.224C112.651 68.7573 112.736 69.328 112.736 69.936C112.736 69.9893 112.736 70.048 112.736 70.112C112.736 70.176 112.731 70.2453 112.72 70.32H106.16ZM106.16 69.408H111.488C111.456 69.0347 111.376 68.6773 111.248 68.336C111.131 67.9947 110.96 67.696 110.736 67.44C110.523 67.184 110.256 66.9813 109.936 66.832C109.627 66.672 109.264 66.592 108.848 66.592C108.486 66.592 108.15 66.6667 107.84 66.816C107.531 66.9547 107.259 67.152 107.024 67.408C106.79 67.6533 106.598 67.9467 106.448 68.288C106.299 68.6293 106.203 69.0027 106.16 69.408Z" fill="white"/>
</g>
<defs>
<linearGradient id="paint0_linear_46_2" x1="98.5" y1="-8" x2="98.5" y2="148" gradientUnits="userSpaceOnUse">
<stop stop-color="#D9D9D9" stop-opacity="0"/>
<stop offset="1" stop-color="#1D3522"/>
</linearGradient>
<clipPath id="clip0_46_2">
<rect width="181.6" height="118" rx="6" fill="white"/>
</clipPath>
</defs>
</svg>
