<svg width="33" height="45" viewBox="0 0 33 45" fill="none" xmlns="http://www.w3.org/2000/svg">
<path d="M18.3956 0.625235L18.2348 0.0131742L17.6749 0.307374C16.7177 0.825898 15.6517 1.11129 14.5635 1.14037C13.4166 1.14968 12.2969 1.49114 11.3399 2.12344C10.8305 2.44609 10.41 2.89102 10.1165 3.41773C9.82299 3.94444 9.66591 4.5362 9.65953 5.13912C9.65081 5.91809 9.84445 6.68597 10.2215 7.36765C10.3266 6.96445 10.4619 6.56973 10.6263 6.18685C11.0071 5.36708 11.6061 4.66792 12.3579 4.16595C13.0818 3.68083 13.9093 3.37201 14.774 3.26424C13.9765 3.52337 13.2415 3.94547 12.6158 4.50376C12.3136 4.77052 12.0467 5.07464 11.8214 5.4088C11.6081 5.74099 11.4299 6.09443 11.2896 6.46344C11.038 7.22809 10.9004 8.02562 10.8812 8.83036C10.851 9.6395 10.8953 10.4497 11.0135 11.2507L12.0004 11.0894C11.9301 10.3652 11.9109 9.63695 11.943 8.91007C12.688 9.16782 13.4866 9.23082 14.2629 9.0931C14.9884 8.97396 15.6827 8.71056 16.3047 8.31848C19.7976 6.10077 18.4319 0.847287 18.3956 0.625235Z" fill="#6A994E"/>
<path d="M25.4394 16.5838C25.738 18.0171 25.7414 19.3279 25.4497 20.5164C25.1579 21.7049 24.6298 22.7588 23.8652 23.678C23.1241 24.5924 22.1818 25.3648 21.0384 25.9953C19.9135 26.5974 18.658 27.0428 17.2718 27.3316L13.1483 28.1907L14.6902 35.5918L9.26276 36.7225L4.12304 12.0522L14.2026 9.95226C15.6828 9.64387 17.0426 9.58122 18.282 9.76428C19.54 9.91896 20.6468 10.289 21.6022 10.8744C22.5812 11.455 23.3923 12.2298 24.0355 13.199C24.6973 14.1398 25.1604 15.2446 25.4247 16.5133L25.4394 16.5838ZM19.9634 17.835L19.9488 17.7645C19.6942 16.5427 19.1014 15.6979 18.1704 15.2299C17.2629 14.7571 16.1278 14.6626 14.7651 14.9465L10.5711 15.8203L12.1424 23.3623L16.4421 22.4666C17.8048 22.1826 18.7887 21.6099 19.3937 20.7484C19.9938 19.8634 20.1837 18.8923 19.9634 17.835Z" fill="#6A994E"/>
</svg>
